solid Carriage - Hotend Holder
   facet normal -1.000000e+000 0.000000e+000 3.469447e-016
      outer loop
         vertex 0.000000e+000 5.800000e+000 0.000000e+000
         vertex 0.000000e+000 0.000000e+000 0.000000e+000
         vertex 0.000000e+000 5.800000e+000 6.000000e+000
      endloop
   endfacet
   facet normal -1.000000e+000 0.000000e+000 3.469447e-016
      outer loop
         vertex 0.000000e+000 5.800000e+000 6.000000e+000
         vertex 0.000000e+000 0.000000e+000 0.000000e+000
         vertex 0.000000e+000 0.000000e+000 6.000000e+000
      endloop
   endfacet
   facet normal -9.903958e-001 1.382612e-001 0.000000e+000
      outer loop
         vertex 6.753027e+000 2.208548e+000 0.000000e+000
         vertex 6.900000e+000 2.900000e+000 6.000000e+000
         vertex 6.900000e+000 2.900000e+000 0.000000e+000
      endloop
   endfacet
   facet normal -9.903958e-001 -1.382612e-001 0.000000e+000
      outer loop
         vertex 6.900000e+000 2.900000e+000 0.000000e+000
         vertex 6.900000e+000 2.900000e+000 6.000000e+000
         vertex 6.753027e+000 3.591452e+000 6.000000e+000
      endloop
   endfacet
   facet normal -9.610075e-001 -2.765224e-001 0.000000e+000
      outer loop
         vertex 6.900000e+000 2.900000e+000 0.000000e+000
         vertex 6.753027e+000 3.591452e+000 6.000000e+000
         vertex 6.753027e+000 3.591452e+000 0.000000e+000
      endloop
   endfacet
   facet normal -8.485357e-001 -5.291381e-001 0.000000e+000
      outer loop
         vertex 6.753027e+000 3.591452e+000 0.000000e+000
         vertex 6.753027e+000 3.591452e+000 6.000000e+000
         vertex 6.337522e+000 4.163346e+000 6.000000e+000
      endloop
   endfacet
   facet normal -7.654522e-001 -6.434927e-001 0.000000e+000
      outer loop
         vertex 6.753027e+000 3.591452e+000 0.000000e+000
         vertex 6.337522e+000 4.163346e+000 6.000000e+000
         vertex 6.337522e+000 4.163346e+000 0.000000e+000
      endloop
   endfacet
   facet normal -5.599561e-001 -8.285223e-001 0.000000e+000
      outer loop
         vertex 6.337522e+000 4.163346e+000 0.000000e+000
         vertex 6.337522e+000 4.163346e+000 6.000000e+000
         vertex 5.725329e+000 4.516796e+000 6.000000e+000
      endloop
   endfacet
   facet normal -4.375433e-001 -8.991973e-001 0.000000e+000
      outer loop
         vertex 6.337522e+000 4.163346e+000 0.000000e+000
         vertex 5.725329e+000 4.516796e+000 6.000000e+000
         vertex 5.725329e+000 4.516796e+000 0.000000e+000
      endloop
   endfacet
   facet normal -1.745549e-001 -9.846475e-001 0.000000e+000
      outer loop
         vertex 5.725329e+000 4.516796e+000 0.000000e+000
         vertex 5.725329e+000 4.516796e+000 6.000000e+000
         vertex 5.022301e+000 4.590687e+000 6.000000e+000
      endloop
   endfacet
   facet normal -3.397924e-002 -9.994226e-001 0.000000e+000
      outer loop
         vertex 5.725329e+000 4.516796e+000 0.000000e+000
         vertex 5.022301e+000 4.590687e+000 6.000000e+000
         vertex 5.022301e+000 4.590687e+000 0.000000e+000
      endloop
   endfacet
   facet normal 2.410283e-001 -9.705181e-001 0.000000e+000
      outer loop
         vertex 5.022301e+000 4.590687e+000 0.000000e+000
         vertex 5.022301e+000 4.590687e+000 6.000000e+000
         vertex 4.350000e+000 4.372243e+000 6.000000e+000
      endloop
   endfacet
   facet normal 3.754602e-001 -9.268385e-001 0.000000e+000
      outer loop
         vertex 5.022301e+000 4.590687e+000 0.000000e+000
         vertex 4.350000e+000 4.372243e+000 6.000000e+000
         vertex 4.350000e+000 4.372243e+000 0.000000e+000
      endloop
   endfacet
   facet normal 6.149356e-001 -7.885774e-001 0.000000e+000
      outer loop
         vertex 4.350000e+000 4.372243e+000 0.000000e+000
         vertex 4.350000e+000 4.372243e+000 6.000000e+000
         vertex 3.824671e+000 3.899235e+000 6.000000e+000
      endloop
   endfacet
   facet normal 7.199791e-001 -6.939957e-001 0.000000e+000
      outer loop
         vertex 4.350000e+000 4.372243e+000 0.000000e+000
         vertex 3.824671e+000 3.899235e+000 6.000000e+000
         vertex 3.824671e+000 3.899235e+000 0.000000e+000
      endloop
   endfacet
   facet normal 8.825150e-001 -4.702844e-001 0.000000e+000
      outer loop
         vertex 3.824671e+000 3.899235e+000 0.000000e+000
         vertex 3.824671e+000 3.899235e+000 6.000000e+000
         vertex 3.537149e+000 3.253450e+000 6.000000e+000
      endloop
   endfacet
   facet normal 9.400072e-001 -3.411547e-001 0.000000e+000
      outer loop
         vertex 3.824671e+000 3.899235e+000 0.000000e+000
         vertex 3.537149e+000 3.253450e+000 6.000000e+000
         vertex 3.537149e+000 3.253450e+000 0.000000e+000
      endloop
   endfacet
   facet normal 9.974994e-001 -7.067501e-002 0.000000e+000
      outer loop
         vertex 3.537149e+000 3.253450e+000 0.000000e+000
         vertex 3.537149e+000 3.253450e+000 6.000000e+000
         vertex 3.537149e+000 2.546550e+000 6.000000e+000
      endloop
   endfacet
   facet normal 9.974994e-001 7.067501e-002 0.000000e+000
      outer loop
         vertex 3.537149e+000 3.253450e+000 0.000000e+000
         vertex 3.537149e+000 2.546550e+000 6.000000e+000
         vertex 3.537149e+000 2.546550e+000 0.000000e+000
      endloop
   endfacet
   facet normal 9.400072e-001 3.411547e-001 0.000000e+000
      outer loop
         vertex 3.537149e+000 2.546550e+000 0.000000e+000
         vertex 3.537149e+000 2.546550e+000 6.000000e+000
         vertex 3.824671e+000 1.900765e+000 6.000000e+000
      endloop
   endfacet
   facet normal 8.825150e-001 4.702844e-001 0.000000e+000
      outer loop
         vertex 3.537149e+000 2.546550e+000 0.000000e+000
         vertex 3.824671e+000 1.900765e+000 6.000000e+000
         vertex 3.824671e+000 1.900765e+000 0.000000e+000
      endloop
   endfacet
   facet normal 7.199791e-001 6.939957e-001 0.000000e+000
      outer loop
         vertex 3.824671e+000 1.900765e+000 0.000000e+000
         vertex 3.824671e+000 1.900765e+000 6.000000e+000
         vertex 4.350000e+000 1.427757e+000 6.000000e+000
      endloop
   endfacet
   facet normal 6.149356e-001 7.885774e-001 0.000000e+000
      outer loop
         vertex 3.824671e+000 1.900765e+000 0.000000e+000
         vertex 4.350000e+000 1.427757e+000 6.000000e+000
         vertex 4.350000e+000 1.427757e+000 0.000000e+000
      endloop
   endfacet
   facet normal 3.754602e-001 9.268385e-001 0.000000e+000
      outer loop
         vertex 4.350000e+000 1.427757e+000 0.000000e+000
         vertex 4.350000e+000 1.427757e+000 6.000000e+000
         vertex 5.022301e+000 1.209313e+000 6.000000e+000
      endloop
   endfacet
   facet normal 2.410284e-001 9.705181e-001 0.000000e+000
      outer loop
         vertex 4.350000e+000 1.427757e+000 0.000000e+000
         vertex 5.022301e+000 1.209313e+000 6.000000e+000
         vertex 5.022301e+000 1.209313e+000 0.000000e+000
      endloop
   endfacet
   facet normal -3.397923e-002 9.994226e-001 0.000000e+000
      outer loop
         vertex 5.022301e+000 1.209313e+000 0.000000e+000
         vertex 5.022301e+000 1.209313e+000 6.000000e+000
         vertex 5.725329e+000 1.283204e+000 6.000000e+000
      endloop
   endfacet
   facet normal -1.745549e-001 9.846475e-001 0.000000e+000
      outer loop
         vertex 5.022301e+000 1.209313e+000 0.000000e+000
         vertex 5.725329e+000 1.283204e+000 6.000000e+000
         vertex 5.725329e+000 1.283204e+000 0.000000e+000
      endloop
   endfacet
   facet normal -4.375433e-001 8.991973e-001 0.000000e+000
      outer loop
         vertex 5.725329e+000 1.283204e+000 0.000000e+000
         vertex 5.725329e+000 1.283204e+000 6.000000e+000
         vertex 6.337522e+000 1.636654e+000 6.000000e+000
      endloop
   endfacet
   facet normal -5.599561e-001 8.285223e-001 0.000000e+000
      outer loop
         vertex 5.725329e+000 1.283204e+000 0.000000e+000
         vertex 6.337522e+000 1.636654e+000 6.000000e+000
         vertex 6.337522e+000 1.636654e+000 0.000000e+000
      endloop
   endfacet
   facet normal -7.654523e-001 6.434927e-001 0.000000e+000
      outer loop
         vertex 6.337522e+000 1.636654e+000 0.000000e+000
         vertex 6.337522e+000 1.636654e+000 6.000000e+000
         vertex 6.753027e+000 2.208548e+000 6.000000e+000
      endloop
   endfacet
   facet normal -8.485357e-001 5.291381e-001 0.000000e+000
      outer loop
         vertex 6.337522e+000 1.636654e+000 0.000000e+000
         vertex 6.753027e+000 2.208548e+000 6.000000e+000
         vertex 6.753027e+000 2.208548e+000 0.000000e+000
      endloop
   endfacet
   facet normal -9.610075e-001 2.765224e-001 0.000000e+000
      outer loop
         vertex 6.753027e+000 2.208548e+000 0.000000e+000
         vertex 6.753027e+000 2.208548e+000 6.000000e+000
         vertex 6.900000e+000 2.900000e+000 6.000000e+000
      endloop
   endfacet
   facet normal 1.224647e-016 0.000000e+000 1.000000e+000
      outer loop
         vertex 7.720990e+000 1.907313e-001 1.000000e+001
         vertex 7.895503e+000 5.020319e-002 1.000000e+001
         vertex 8.113868e+000 0.000000e+000 1.000000e+001
      endloop
   endfacet
   facet normal 1.224647e-016 0.000000e+000 1.000000e+000
      outer loop
         vertex 8.113868e+000 5.800000e+000 1.000000e+001
         vertex 7.895503e+000 5.749797e+000 1.000000e+001
         vertex 7.720990e+000 5.609269e+000 1.000000e+001
      endloop
   endfacet
   facet normal 1.224647e-016 0.000000e+000 1.000000e+000
      outer loop
         vertex 2.527208e+001 8.178808e-001 1.000000e+001
         vertex 8.113868e+000 0.000000e+000 1.000000e+001
         vertex 2.488613e+001 0.000000e+000 1.000000e+001
      endloop
   endfacet
   facet normal 1.224647e-016 0.000000e+000 1.000000e+000
      outer loop
         vertex 8.443955e+000 2.450135e+000 1.000000e+001
         vertex 2.455604e+001 2.450135e+000 1.000000e+001
         vertex 8.443955e+000 3.349865e+000 1.000000e+001
      endloop
   endfacet
   facet normal 1.224647e-016 0.000000e+000 1.000000e+000
      outer loop
         vertex 8.443955e+000 3.349865e+000 1.000000e+001
         vertex 2.455604e+001 2.450135e+000 1.000000e+001
         vertex 2.455604e+001 3.349865e+000 1.000000e+001
      endloop
   endfacet
   facet normal 1.224647e-016 0.000000e+000 1.000000e+000
      outer loop
         vertex 8.443955e+000 3.349865e+000 1.000000e+001
         vertex 2.455604e+001 3.349865e+000 1.000000e+001
         vertex 8.199119e+000 4.215641e+000 1.000000e+001
      endloop
   endfacet
   facet normal 1.224647e-016 0.000000e+000 1.000000e+000
      outer loop
         vertex 2.537463e+001 3.933645e-001 1.000000e+001
         vertex 2.537215e+001 6.174116e-001 1.000000e+001
         vertex 2.527901e+001 1.907313e-001 1.000000e+001
      endloop
   endfacet
   facet normal 1.224647e-016 0.000000e+000 1.000000e+000
      outer loop
         vertex 2.527901e+001 1.907313e-001 1.000000e+001
         vertex 2.537215e+001 6.174116e-001 1.000000e+001
         vertex 2.527208e+001 8.178808e-001 1.000000e+001
      endloop
   endfacet
   facet normal 1.224647e-016 0.000000e+000 1.000000e+000
      outer loop
         vertex 2.527901e+001 1.907313e-001 1.000000e+001
         vertex 2.527208e+001 8.178808e-001 1.000000e+001
         vertex 2.510450e+001 5.020319e-002 1.000000e+001
      endloop
   endfacet
   facet normal 1.224647e-016 0.000000e+000 1.000000e+000
      outer loop
         vertex 2.510450e+001 5.020319e-002 1.000000e+001
         vertex 2.527208e+001 8.178808e-001 1.000000e+001
         vertex 2.488613e+001 0.000000e+000 1.000000e+001
      endloop
   endfacet
   facet normal 1.224647e-016 0.000000e+000 1.000000e+000
      outer loop
         vertex 7.625371e+000 5.406635e+000 1.000000e+001
         vertex 7.627849e+000 5.182589e+000 1.000000e+001
         vertex 2.455604e+001 3.349865e+000 1.000000e+001
      endloop
   endfacet
   facet normal 1.224647e-016 0.000000e+000 1.000000e+000
      outer loop
         vertex 2.455604e+001 3.349865e+000 1.000000e+001
         vertex 7.627849e+000 5.182589e+000 1.000000e+001
         vertex 7.727925e+000 4.982120e+000 1.000000e+001
      endloop
   endfacet
   facet normal 1.224647e-016 0.000000e+000 1.000000e+000
      outer loop
         vertex 2.455604e+001 3.349865e+000 1.000000e+001
         vertex 7.727925e+000 4.982120e+000 1.000000e+001
         vertex 8.199119e+000 4.215641e+000 1.000000e+001
      endloop
   endfacet
   facet normal 1.224647e-016 0.000000e+000 1.000000e+000
      outer loop
         vertex 8.443955e+000 2.450135e+000 1.000000e+001
         vertex 8.199119e+000 1.584359e+000 1.000000e+001
         vertex 2.455604e+001 2.450135e+000 1.000000e+001
      endloop
   endfacet
   facet normal 1.224647e-016 0.000000e+000 1.000000e+000
      outer loop
         vertex 2.455604e+001 2.450135e+000 1.000000e+001
         vertex 8.199119e+000 1.584359e+000 1.000000e+001
         vertex 7.727925e+000 8.178808e-001 1.000000e+001
      endloop
   endfacet
   facet normal 1.224647e-016 0.000000e+000 1.000000e+000
      outer loop
         vertex 2.455604e+001 2.450135e+000 1.000000e+001
         vertex 7.727925e+000 8.178808e-001 1.000000e+001
         vertex 7.627849e+000 6.174116e-001 1.000000e+001
      endloop
   endfacet
   facet normal 1.224647e-016 0.000000e+000 1.000000e+000
      outer loop
         vertex 2.537215e+001 5.182589e+000 1.000000e+001
         vertex 2.537463e+001 5.406635e+000 1.000000e+001
         vertex 2.527208e+001 4.982120e+000 1.000000e+001
      endloop
   endfacet
   facet normal 1.224647e-016 0.000000e+000 1.000000e+000
      outer loop
         vertex 2.527208e+001 4.982120e+000 1.000000e+001
         vertex 2.537463e+001 5.406635e+000 1.000000e+001
         vertex 2.527901e+001 5.609269e+000 1.000000e+001
      endloop
   endfacet
   facet normal 1.224647e-016 0.000000e+000 1.000000e+000
      outer loop
         vertex 7.625371e+000 5.406635e+000 1.000000e+001
         vertex 2.455604e+001 3.349865e+000 1.000000e+001
         vertex 7.720990e+000 5.609269e+000 1.000000e+001
      endloop
   endfacet
   facet normal 1.224647e-016 0.000000e+000 1.000000e+000
      outer loop
         vertex 7.720990e+000 5.609269e+000 1.000000e+001
         vertex 2.455604e+001 3.349865e+000 1.000000e+001
         vertex 2.480088e+001 4.215641e+000 1.000000e+001
      endloop
   endfacet
   facet normal 1.224647e-016 0.000000e+000 1.000000e+000
      outer loop
         vertex 7.720990e+000 5.609269e+000 1.000000e+001
         vertex 2.480088e+001 4.215641e+000 1.000000e+001
         vertex 8.113868e+000 5.800000e+000 1.000000e+001
      endloop
   endfacet
   facet normal 1.224647e-016 0.000000e+000 1.000000e+000
      outer loop
         vertex 8.113868e+000 5.800000e+000 1.000000e+001
         vertex 2.480088e+001 4.215641e+000 1.000000e+001
         vertex 2.527208e+001 4.982120e+000 1.000000e+001
      endloop
   endfacet
   facet normal 1.224647e-016 0.000000e+000 1.000000e+000
      outer loop
         vertex 8.113868e+000 5.800000e+000 1.000000e+001
         vertex 2.527208e+001 4.982120e+000 1.000000e+001
         vertex 2.488613e+001 5.800000e+000 1.000000e+001
      endloop
   endfacet
   facet normal 1.224647e-016 0.000000e+000 1.000000e+000
      outer loop
         vertex 2.488613e+001 5.800000e+000 1.000000e+001
         vertex 2.527208e+001 4.982120e+000 1.000000e+001
         vertex 2.527901e+001 5.609269e+000 1.000000e+001
      endloop
   endfacet
   facet normal 1.224647e-016 0.000000e+000 1.000000e+000
      outer loop
         vertex 2.488613e+001 5.800000e+000 1.000000e+001
         vertex 2.527901e+001 5.609269e+000 1.000000e+001
         vertex 2.510450e+001 5.749797e+000 1.000000e+001
      endloop
   endfacet
   facet normal 1.224647e-016 0.000000e+000 1.000000e+000
      outer loop
         vertex 2.527208e+001 8.178808e-001 1.000000e+001
         vertex 2.480088e+001 1.584359e+000 1.000000e+001
         vertex 8.113868e+000 0.000000e+000 1.000000e+001
      endloop
   endfacet
   facet normal 1.224647e-016 0.000000e+000 1.000000e+000
      outer loop
         vertex 8.113868e+000 0.000000e+000 1.000000e+001
         vertex 2.480088e+001 1.584359e+000 1.000000e+001
         vertex 2.455604e+001 2.450135e+000 1.000000e+001
      endloop
   endfacet
   facet normal 1.224647e-016 0.000000e+000 1.000000e+000
      outer loop
         vertex 8.113868e+000 0.000000e+000 1.000000e+001
         vertex 2.455604e+001 2.450135e+000 1.000000e+001
         vertex 7.720990e+000 1.907313e-001 1.000000e+001
      endloop
   endfacet
   facet normal 1.224647e-016 0.000000e+000 1.000000e+000
      outer loop
         vertex 7.720990e+000 1.907313e-001 1.000000e+001
         vertex 2.455604e+001 2.450135e+000 1.000000e+001
         vertex 7.627849e+000 6.174116e-001 1.000000e+001
      endloop
   endfacet
   facet normal 1.224647e-016 0.000000e+000 1.000000e+000
      outer loop
         vertex 7.720990e+000 1.907313e-001 1.000000e+001
         vertex 7.627849e+000 6.174116e-001 1.000000e+001
         vertex 7.625371e+000 3.933645e-001 1.000000e+001
      endloop
   endfacet
   facet normal 1.000000e+000 0.000000e+000 -3.469447e-016
      outer loop
         vertex 3.300000e+001 4.336809e-015 6.000000e+000
         vertex 3.300000e+001 0.000000e+000 0.000000e+000
         vertex 3.300000e+001 5.800000e+000 6.000000e+000
      endloop
   endfacet
   facet normal 1.000000e+000 0.000000e+000 -3.469447e-016
      outer loop
         vertex 3.300000e+001 5.800000e+000 6.000000e+000
         vertex 3.300000e+001 0.000000e+000 0.000000e+000
         vertex 3.300000e+001 5.800000e+000 0.000000e+000
      endloop
   endfacet
   facet normal 0.000000e+000 0.000000e+000 -1.000000e+000
      outer loop
         vertex 2.642467e+001 3.899235e+000 0.000000e+000
         vertex 2.613715e+001 3.253450e+000 0.000000e+000
         vertex 2.260000e+001 5.800000e+000 0.000000e+000
      endloop
   endfacet
   facet normal 0.000000e+000 0.000000e+000 -1.000000e+000
      outer loop
         vertex 2.260000e+001 5.800000e+000 0.000000e+000
         vertex 2.613715e+001 3.253450e+000 0.000000e+000
         vertex 2.260000e+001 0.000000e+000 0.000000e+000
      endloop
   endfacet
   facet normal 0.000000e+000 0.000000e+000 -1.000000e+000
      outer loop
         vertex 2.260000e+001 0.000000e+000 0.000000e+000
         vertex 2.613715e+001 3.253450e+000 0.000000e+000
         vertex 2.613715e+001 2.546550e+000 0.000000e+000
      endloop
   endfacet
   facet normal 0.000000e+000 0.000000e+000 -1.000000e+000
      outer loop
         vertex 2.260000e+001 0.000000e+000 0.000000e+000
         vertex 2.613715e+001 2.546550e+000 0.000000e+000
         vertex 2.642467e+001 1.900765e+000 0.000000e+000
      endloop
   endfacet
   facet normal 0.000000e+000 0.000000e+000 -1.000000e+000
      outer loop
         vertex 2.642467e+001 1.900765e+000 0.000000e+000
         vertex 2.695000e+001 1.427757e+000 0.000000e+000
         vertex 2.260000e+001 0.000000e+000 0.000000e+000
      endloop
   endfacet
   facet normal 0.000000e+000 0.000000e+000 -1.000000e+000
      outer loop
         vertex 2.260000e+001 0.000000e+000 0.000000e+000
         vertex 2.695000e+001 1.427757e+000 0.000000e+000
         vertex 2.762230e+001 1.209313e+000 0.000000e+000
      endloop
   endfacet
   facet normal 0.000000e+000 0.000000e+000 -1.000000e+000
      outer loop
         vertex 2.260000e+001 0.000000e+000 0.000000e+000
         vertex 2.762230e+001 1.209313e+000 0.000000e+000
         vertex 3.300000e+001 0.000000e+000 0.000000e+000
      endloop
   endfacet
   facet normal 0.000000e+000 0.000000e+000 -1.000000e+000
      outer loop
         vertex 3.300000e+001 0.000000e+000 0.000000e+000
         vertex 2.762230e+001 1.209313e+000 0.000000e+000
         vertex 2.832533e+001 1.283204e+000 0.000000e+000
      endloop
   endfacet
   facet normal 0.000000e+000 0.000000e+000 -1.000000e+000
      outer loop
         vertex 3.300000e+001 0.000000e+000 0.000000e+000
         vertex 2.832533e+001 1.283204e+000 0.000000e+000
         vertex 2.893752e+001 1.636654e+000 0.000000e+000
      endloop
   endfacet
   facet normal 0.000000e+000 0.000000e+000 -1.000000e+000
      outer loop
         vertex 2.893752e+001 1.636654e+000 0.000000e+000
         vertex 2.935303e+001 2.208548e+000 0.000000e+000
         vertex 3.300000e+001 0.000000e+000 0.000000e+000
      endloop
   endfacet
   facet normal 0.000000e+000 0.000000e+000 -1.000000e+000
      outer loop
         vertex 3.300000e+001 0.000000e+000 0.000000e+000
         vertex 2.935303e+001 2.208548e+000 0.000000e+000
         vertex 2.950000e+001 2.900000e+000 0.000000e+000
      endloop
   endfacet
   facet normal 0.000000e+000 0.000000e+000 -1.000000e+000
      outer loop
         vertex 3.300000e+001 0.000000e+000 0.000000e+000
         vertex 2.950000e+001 2.900000e+000 0.000000e+000
         vertex 3.300000e+001 5.800000e+000 0.000000e+000
      endloop
   endfacet
   facet normal 0.000000e+000 0.000000e+000 -1.000000e+000
      outer loop
         vertex 3.300000e+001 5.800000e+000 0.000000e+000
         vertex 2.950000e+001 2.900000e+000 0.000000e+000
         vertex 2.935303e+001 3.591452e+000 0.000000e+000
      endloop
   endfacet
   facet normal 0.000000e+000 0.000000e+000 -1.000000e+000
      outer loop
         vertex 3.300000e+001 5.800000e+000 0.000000e+000
         vertex 2.935303e+001 3.591452e+000 0.000000e+000
         vertex 2.893752e+001 4.163346e+000 0.000000e+000
      endloop
   endfacet
   facet normal 0.000000e+000 0.000000e+000 -1.000000e+000
      outer loop
         vertex 2.893752e+001 4.163346e+000 0.000000e+000
         vertex 2.832533e+001 4.516796e+000 0.000000e+000
         vertex 3.300000e+001 5.800000e+000 0.000000e+000
      endloop
   endfacet
   facet normal 0.000000e+000 0.000000e+000 -1.000000e+000
      outer loop
         vertex 3.300000e+001 5.800000e+000 0.000000e+000
         vertex 2.832533e+001 4.516796e+000 0.000000e+000
         vertex 2.762230e+001 4.590687e+000 0.000000e+000
      endloop
   endfacet
   facet normal 0.000000e+000 0.000000e+000 -1.000000e+000
      outer loop
         vertex 3.300000e+001 5.800000e+000 0.000000e+000
         vertex 2.762230e+001 4.590687e+000 0.000000e+000
         vertex 2.260000e+001 5.800000e+000 0.000000e+000
      endloop
   endfacet
   facet normal 0.000000e+000 0.000000e+000 -1.000000e+000
      outer loop
         vertex 2.260000e+001 5.800000e+000 0.000000e+000
         vertex 2.762230e+001 4.590687e+000 0.000000e+000
         vertex 2.695000e+001 4.372243e+000 0.000000e+000
      endloop
   endfacet
   facet normal 0.000000e+000 0.000000e+000 -1.000000e+000
      outer loop
         vertex 2.260000e+001 5.800000e+000 0.000000e+000
         vertex 2.695000e+001 4.372243e+000 0.000000e+000
         vertex 2.642467e+001 3.899235e+000 0.000000e+000
      endloop
   endfacet
   facet normal -9.972143e-001 0.000000e+000 -7.459039e-002
      outer loop
         vertex 2.260000e+001 5.800000e+000 0.000000e+000
         vertex 2.260000e+001 0.000000e+000 0.000000e+000
         vertex 2.244706e+001 0.000000e+000 1.357378e+000
      endloop
   endfacet
   facet normal -9.888099e-001 0.000000e+000 -1.491808e-001
      outer loop
         vertex 2.260000e+001 5.800000e+000 0.000000e+000
         vertex 2.244706e+001 0.000000e+000 1.357378e+000
         vertex 2.244706e+001 5.800000e+000 1.357378e+000
      endloop
   endfacet
   facet normal -9.556141e-001 0.000000e+000 -2.946213e-001
      outer loop
         vertex 2.244706e+001 5.800000e+000 1.357378e+000
         vertex 2.244706e+001 0.000000e+000 1.357378e+000
         vertex 2.199591e+001 0.000000e+000 2.646691e+000
      endloop
   endfacet
   facet normal -9.308226e-001 0.000000e+000 -3.654715e-001
      outer loop
         vertex 2.244706e+001 5.800000e+000 1.357378e+000
         vertex 2.199591e+001 0.000000e+000 2.646691e+000
         vertex 2.199591e+001 5.800000e+000 2.646691e+000
      endloop
   endfacet
   facet normal -8.660954e-001 0.000000e+000 -4.998786e-001
      outer loop
         vertex 2.199591e+001 5.800000e+000 2.646691e+000
         vertex 2.199591e+001 0.000000e+000 2.646691e+000
         vertex 2.126917e+001 0.000000e+000 3.803288e+000
      endloop
   endfacet
   facet normal -8.261599e-001 0.000000e+000 -5.634358e-001
      outer loop
         vertex 2.199591e+001 5.800000e+000 2.646691e+000
         vertex 2.126917e+001 0.000000e+000 3.803288e+000
         vertex 2.126917e+001 5.800000e+000 3.803288e+000
      endloop
   endfacet
   facet normal -7.331472e-001 0.000000e+000 -6.800700e-001
      outer loop
         vertex 2.126917e+001 5.800000e+000 3.803288e+000
         vertex 2.126917e+001 0.000000e+000 3.803288e+000
         vertex 2.030329e+001 0.000000e+000 4.769172e+000
      endloop
   endfacet
   facet normal -6.800701e-001 0.000000e+000 -7.331471e-001
      outer loop
         vertex 2.126917e+001 5.800000e+000 3.803288e+000
         vertex 2.030329e+001 0.000000e+000 4.769172e+000
         vertex 2.030329e+001 5.800000e+000 4.769172e+000
      endloop
   endfacet
   facet normal -5.634358e-001 0.000000e+000 -8.261599e-001
      outer loop
         vertex 2.030329e+001 5.800000e+000 4.769172e+000
         vertex 2.030329e+001 0.000000e+000 4.769172e+000
         vertex 1.914669e+001 0.000000e+000 5.495910e+000
      endloop
   endfacet
   facet normal -4.998786e-001 0.000000e+000 -8.660954e-001
      outer loop
         vertex 2.030329e+001 5.800000e+000 4.769172e+000
         vertex 1.914669e+001 0.000000e+000 5.495910e+000
         vertex 1.914669e+001 5.800000e+000 5.495910e+000
      endloop
   endfacet
   facet normal -3.654715e-001 0.000000e+000 -9.308226e-001
      outer loop
         vertex 1.914669e+001 5.800000e+000 5.495910e+000
         vertex 1.914669e+001 0.000000e+000 5.495910e+000
         vertex 1.785738e+001 0.000000e+000 5.947060e+000
      endloop
   endfacet
   facet normal -2.946213e-001 0.000000e+000 -9.556140e-001
      outer loop
         vertex 1.914669e+001 5.800000e+000 5.495910e+000
         vertex 1.785738e+001 0.000000e+000 5.947060e+000
         vertex 1.785738e+001 5.800000e+000 5.947060e+000
      endloop
   endfacet
   facet normal -1.491808e-001 0.000000e+000 -9.888099e-001
      outer loop
         vertex 1.785738e+001 5.800000e+000 5.947060e+000
         vertex 1.785738e+001 0.000000e+000 5.947060e+000
         vertex 1.650000e+001 0.000000e+000 6.100000e+000
      endloop
   endfacet
   facet normal -7.459039e-002 0.000000e+000 -9.972143e-001
      outer loop
         vertex 1.785738e+001 5.800000e+000 5.947060e+000
         vertex 1.650000e+001 0.000000e+000 6.100000e+000
         vertex 1.650000e+001 5.800000e+000 6.100000e+000
      endloop
   endfacet
   facet normal 7.459039e-002 0.000000e+000 -9.972143e-001
      outer loop
         vertex 1.650000e+001 5.800000e+000 6.100000e+000
         vertex 1.650000e+001 0.000000e+000 6.100000e+000
         vertex 1.514262e+001 0.000000e+000 5.947060e+000
      endloop
   endfacet
   facet normal 1.491808e-001 0.000000e+000 -9.888099e-001
      outer loop
         vertex 1.650000e+001 5.800000e+000 6.100000e+000
         vertex 1.514262e+001 0.000000e+000 5.947060e+000
         vertex 1.514262e+001 5.800000e+000 5.947060e+000
      endloop
   endfacet
   facet normal 2.946213e-001 0.000000e+000 -9.556141e-001
      outer loop
         vertex 1.514262e+001 5.800000e+000 5.947060e+000
         vertex 1.514262e+001 0.000000e+000 5.947060e+000
         vertex 1.385331e+001 0.000000e+000 5.495910e+000
      endloop
   endfacet
   facet normal 3.654715e-001 0.000000e+000 -9.308226e-001
      outer loop
         vertex 1.514262e+001 5.800000e+000 5.947060e+000
         vertex 1.385331e+001 0.000000e+000 5.495910e+000
         vertex 1.385331e+001 5.800000e+000 5.495910e+000
      endloop
   endfacet
   facet normal 4.998786e-001 0.000000e+000 -8.660954e-001
      outer loop
         vertex 1.385331e+001 5.800000e+000 5.495910e+000
         vertex 1.385331e+001 0.000000e+000 5.495910e+000
         vertex 1.269671e+001 0.000000e+000 4.769172e+000
      endloop
   endfacet
   facet normal 5.634358e-001 0.000000e+000 -8.261599e-001
      outer loop
         vertex 1.385331e+001 5.800000e+000 5.495910e+000
         vertex 1.269671e+001 0.000000e+000 4.769172e+000
         vertex 1.269671e+001 5.800000e+000 4.769172e+000
      endloop
   endfacet
   facet normal 6.800700e-001 0.000000e+000 -7.331472e-001
      outer loop
         vertex 1.269671e+001 5.800000e+000 4.769172e+000
         vertex 1.269671e+001 0.000000e+000 4.769172e+000
         vertex 1.173083e+001 0.000000e+000 3.803288e+000
      endloop
   endfacet
   facet normal 7.331471e-001 0.000000e+000 -6.800701e-001
      outer loop
         vertex 1.269671e+001 5.800000e+000 4.769172e+000
         vertex 1.173083e+001 0.000000e+000 3.803288e+000
         vertex 1.173083e+001 5.800000e+000 3.803288e+000
      endloop
   endfacet
   facet normal 8.261599e-001 0.000000e+000 -5.634358e-001
      outer loop
         vertex 1.173083e+001 5.800000e+000 3.803288e+000
         vertex 1.173083e+001 0.000000e+000 3.803288e+000
         vertex 1.100409e+001 0.000000e+000 2.646691e+000
      endloop
   endfacet
   facet normal 8.660954e-001 0.000000e+000 -4.998786e-001
      outer loop
         vertex 1.173083e+001 5.800000e+000 3.803288e+000
         vertex 1.100409e+001 0.000000e+000 2.646691e+000
         vertex 1.100409e+001 5.800000e+000 2.646691e+000
      endloop
   endfacet
   facet normal 9.308226e-001 0.000000e+000 -3.654715e-001
      outer loop
         vertex 1.100409e+001 5.800000e+000 2.646691e+000
         vertex 1.100409e+001 0.000000e+000 2.646691e+000
         vertex 1.055294e+001 0.000000e+000 1.357378e+000
      endloop
   endfacet
   facet normal 9.556140e-001 0.000000e+000 -2.946213e-001
      outer loop
         vertex 1.100409e+001 5.800000e+000 2.646691e+000
         vertex 1.055294e+001 0.000000e+000 1.357378e+000
         vertex 1.055294e+001 5.800000e+000 1.357378e+000
      endloop
   endfacet
   facet normal 9.888099e-001 0.000000e+000 -1.491808e-001
      outer loop
         vertex 1.055294e+001 5.800000e+000 1.357378e+000
         vertex 1.055294e+001 0.000000e+000 1.357378e+000
         vertex 1.040000e+001 0.000000e+000 0.000000e+000
      endloop
   endfacet
   facet normal 9.972143e-001 0.000000e+000 -7.459039e-002
      outer loop
         vertex 1.055294e+001 5.800000e+000 1.357378e+000
         vertex 1.040000e+001 0.000000e+000 0.000000e+000
         vertex 1.040000e+001 5.800000e+000 0.000000e+000
      endloop
   endfacet
   facet normal -1.668003e-016 0.000000e+000 -1.000000e+000
      outer loop
         vertex 3.824671e+000 3.899235e+000 0.000000e+000
         vertex 3.537149e+000 3.253450e+000 0.000000e+000
         vertex 0.000000e+000 5.800000e+000 0.000000e+000
      endloop
   endfacet
   facet normal -1.668003e-016 0.000000e+000 -1.000000e+000
      outer loop
         vertex 0.000000e+000 5.800000e+000 0.000000e+000
         vertex 3.537149e+000 3.253450e+000 0.000000e+000
         vertex 0.000000e+000 0.000000e+000 0.000000e+000
      endloop
   endfacet
   facet normal -1.668003e-016 0.000000e+000 -1.000000e+000
      outer loop
         vertex 0.000000e+000 0.000000e+000 0.000000e+000
         vertex 3.537149e+000 3.253450e+000 0.000000e+000
         vertex 3.537149e+000 2.546550e+000 0.000000e+000
      endloop
   endfacet
   facet normal -1.668003e-016 0.000000e+000 -1.000000e+000
      outer loop
         vertex 0.000000e+000 0.000000e+000 0.000000e+000
         vertex 3.537149e+000 2.546550e+000 0.000000e+000
         vertex 3.824671e+000 1.900765e+000 0.000000e+000
      endloop
   endfacet
   facet normal -1.668003e-016 0.000000e+000 -1.000000e+000
      outer loop
         vertex 3.824671e+000 1.900765e+000 0.000000e+000
         vertex 4.350000e+000 1.427757e+000 0.000000e+000
         vertex 0.000000e+000 0.000000e+000 0.000000e+000
      endloop
   endfacet
   facet normal -1.668003e-016 0.000000e+000 -1.000000e+000
      outer loop
         vertex 0.000000e+000 0.000000e+000 0.000000e+000
         vertex 4.350000e+000 1.427757e+000 0.000000e+000
         vertex 5.022301e+000 1.209313e+000 0.000000e+000
      endloop
   endfacet
   facet normal -1.668003e-016 0.000000e+000 -1.000000e+000
      outer loop
         vertex 0.000000e+000 0.000000e+000 0.000000e+000
         vertex 5.022301e+000 1.209313e+000 0.000000e+000
         vertex 1.040000e+001 0.000000e+000 0.000000e+000
      endloop
   endfacet
   facet normal -1.668003e-016 0.000000e+000 -1.000000e+000
      outer loop
         vertex 1.040000e+001 0.000000e+000 0.000000e+000
         vertex 5.022301e+000 1.209313e+000 0.000000e+000
         vertex 5.725329e+000 1.283204e+000 0.000000e+000
      endloop
   endfacet
   facet normal -1.668003e-016 0.000000e+000 -1.000000e+000
      outer loop
         vertex 1.040000e+001 0.000000e+000 0.000000e+000
         vertex 5.725329e+000 1.283204e+000 0.000000e+000
         vertex 6.337522e+000 1.636654e+000 0.000000e+000
      endloop
   endfacet
   facet normal -1.668003e-016 0.000000e+000 -1.000000e+000
      outer loop
         vertex 6.337522e+000 1.636654e+000 0.000000e+000
         vertex 6.753027e+000 2.208548e+000 0.000000e+000
         vertex 1.040000e+001 0.000000e+000 0.000000e+000
      endloop
   endfacet
   facet normal -1.668003e-016 0.000000e+000 -1.000000e+000
      outer loop
         vertex 1.040000e+001 0.000000e+000 0.000000e+000
         vertex 6.753027e+000 2.208548e+000 0.000000e+000
         vertex 6.900000e+000 2.900000e+000 0.000000e+000
      endloop
   endfacet
   facet normal -1.668003e-016 0.000000e+000 -1.000000e+000
      outer loop
         vertex 1.040000e+001 0.000000e+000 0.000000e+000
         vertex 6.900000e+000 2.900000e+000 0.000000e+000
         vertex 1.040000e+001 5.800000e+000 0.000000e+000
      endloop
   endfacet
   facet normal -1.668003e-016 0.000000e+000 -1.000000e+000
      outer loop
         vertex 1.040000e+001 5.800000e+000 0.000000e+000
         vertex 6.900000e+000 2.900000e+000 0.000000e+000
         vertex 6.753027e+000 3.591452e+000 0.000000e+000
      endloop
   endfacet
   facet normal -1.668003e-016 0.000000e+000 -1.000000e+000
      outer loop
         vertex 1.040000e+001 5.800000e+000 0.000000e+000
         vertex 6.753027e+000 3.591452e+000 0.000000e+000
         vertex 6.337522e+000 4.163346e+000 0.000000e+000
      endloop
   endfacet
   facet normal -1.668003e-016 0.000000e+000 -1.000000e+000
      outer loop
         vertex 6.337522e+000 4.163346e+000 0.000000e+000
         vertex 5.725329e+000 4.516796e+000 0.000000e+000
         vertex 1.040000e+001 5.800000e+000 0.000000e+000
      endloop
   endfacet
   facet normal -1.668003e-016 0.000000e+000 -1.000000e+000
      outer loop
         vertex 1.040000e+001 5.800000e+000 0.000000e+000
         vertex 5.725329e+000 4.516796e+000 0.000000e+000
         vertex 5.022301e+000 4.590687e+000 0.000000e+000
      endloop
   endfacet
   facet normal -1.668003e-016 0.000000e+000 -1.000000e+000
      outer loop
         vertex 1.040000e+001 5.800000e+000 0.000000e+000
         vertex 5.022301e+000 4.590687e+000 0.000000e+000
         vertex 0.000000e+000 5.800000e+000 0.000000e+000
      endloop
   endfacet
   facet normal -1.668003e-016 0.000000e+000 -1.000000e+000
      outer loop
         vertex 0.000000e+000 5.800000e+000 0.000000e+000
         vertex 5.022301e+000 4.590687e+000 0.000000e+000
         vertex 4.350000e+000 4.372243e+000 0.000000e+000
      endloop
   endfacet
   facet normal -1.668003e-016 0.000000e+000 -1.000000e+000
      outer loop
         vertex 0.000000e+000 5.800000e+000 0.000000e+000
         vertex 4.350000e+000 4.372243e+000 0.000000e+000
         vertex 3.824671e+000 3.899235e+000 0.000000e+000
      endloop
   endfacet
   facet normal 0.000000e+000 1.000000e+000 0.000000e+000
      outer loop
         vertex 3.300000e+001 5.800000e+000 0.000000e+000
         vertex 2.260000e+001 5.800000e+000 0.000000e+000
         vertex 3.300000e+001 5.800000e+000 6.000000e+000
      endloop
   endfacet
   facet normal 0.000000e+000 1.000000e+000 0.000000e+000
      outer loop
         vertex 3.300000e+001 5.800000e+000 6.000000e+000
         vertex 2.260000e+001 5.800000e+000 0.000000e+000
         vertex 2.244706e+001 5.800000e+000 1.357378e+000
      endloop
   endfacet
   facet normal 0.000000e+000 1.000000e+000 0.000000e+000
      outer loop
         vertex 3.300000e+001 5.800000e+000 6.000000e+000
         vertex 2.244706e+001 5.800000e+000 1.357378e+000
         vertex 2.488613e+001 5.800000e+000 6.000000e+000
      endloop
   endfacet
   facet normal 0.000000e+000 1.000000e+000 0.000000e+000
      outer loop
         vertex 1.040000e+001 5.800000e+000 0.000000e+000
         vertex 0.000000e+000 5.800000e+000 0.000000e+000
         vertex 1.055294e+001 5.800000e+000 1.357378e+000
      endloop
   endfacet
   facet normal 0.000000e+000 1.000000e+000 0.000000e+000
      outer loop
         vertex 1.055294e+001 5.800000e+000 1.357378e+000
         vertex 0.000000e+000 5.800000e+000 0.000000e+000
         vertex 0.000000e+000 5.800000e+000 6.000000e+000
      endloop
   endfacet
   facet normal 0.000000e+000 1.000000e+000 0.000000e+000
      outer loop
         vertex 1.055294e+001 5.800000e+000 1.357378e+000
         vertex 0.000000e+000 5.800000e+000 6.000000e+000
         vertex 1.100409e+001 5.800000e+000 2.646691e+000
      endloop
   endfacet
   facet normal 0.000000e+000 1.000000e+000 0.000000e+000
      outer loop
         vertex 1.100409e+001 5.800000e+000 2.646691e+000
         vertex 0.000000e+000 5.800000e+000 6.000000e+000
         vertex 8.113868e+000 5.800000e+000 6.000000e+000
      endloop
   endfacet
   facet normal 0.000000e+000 1.000000e+000 0.000000e+000
      outer loop
         vertex 2.244706e+001 5.800000e+000 1.357378e+000
         vertex 2.199591e+001 5.800000e+000 2.646691e+000
         vertex 2.488613e+001 5.800000e+000 6.000000e+000
      endloop
   endfacet
   facet normal 0.000000e+000 1.000000e+000 0.000000e+000
      outer loop
         vertex 2.488613e+001 5.800000e+000 6.000000e+000
         vertex 2.199591e+001 5.800000e+000 2.646691e+000
         vertex 2.126917e+001 5.800000e+000 3.803288e+000
      endloop
   endfacet
   facet normal 0.000000e+000 1.000000e+000 0.000000e+000
      outer loop
         vertex 2.488613e+001 5.800000e+000 6.000000e+000
         vertex 2.126917e+001 5.800000e+000 3.803288e+000
         vertex 2.488613e+001 5.800000e+000 1.000000e+001
      endloop
   endfacet
   facet normal 0.000000e+000 1.000000e+000 0.000000e+000
      outer loop
         vertex 2.488613e+001 5.800000e+000 1.000000e+001
         vertex 2.126917e+001 5.800000e+000 3.803288e+000
         vertex 2.030329e+001 5.800000e+000 4.769172e+000
      endloop
   endfacet
   facet normal 0.000000e+000 1.000000e+000 0.000000e+000
      outer loop
         vertex 2.488613e+001 5.800000e+000 1.000000e+001
         vertex 2.030329e+001 5.800000e+000 4.769172e+000
         vertex 1.914669e+001 5.800000e+000 5.495910e+000
      endloop
   endfacet
   facet normal 0.000000e+000 1.000000e+000 0.000000e+000
      outer loop
         vertex 1.914669e+001 5.800000e+000 5.495910e+000
         vertex 1.785738e+001 5.800000e+000 5.947060e+000
         vertex 2.488613e+001 5.800000e+000 1.000000e+001
      endloop
   endfacet
   facet normal 0.000000e+000 1.000000e+000 0.000000e+000
      outer loop
         vertex 2.488613e+001 5.800000e+000 1.000000e+001
         vertex 1.785738e+001 5.800000e+000 5.947060e+000
         vertex 1.650000e+001 5.800000e+000 6.100000e+000
      endloop
   endfacet
   facet normal 0.000000e+000 1.000000e+000 0.000000e+000
      outer loop
         vertex 2.488613e+001 5.800000e+000 1.000000e+001
         vertex 1.650000e+001 5.800000e+000 6.100000e+000
         vertex 8.113868e+000 5.800000e+000 1.000000e+001
      endloop
   endfacet
   facet normal 0.000000e+000 1.000000e+000 0.000000e+000
      outer loop
         vertex 8.113868e+000 5.800000e+000 1.000000e+001
         vertex 1.650000e+001 5.800000e+000 6.100000e+000
         vertex 1.514262e+001 5.800000e+000 5.947060e+000
      endloop
   endfacet
   facet normal 0.000000e+000 1.000000e+000 0.000000e+000
      outer loop
         vertex 1.514262e+001 5.800000e+000 5.947060e+000
         vertex 1.385331e+001 5.800000e+000 5.495910e+000
         vertex 8.113868e+000 5.800000e+000 1.000000e+001
      endloop
   endfacet
   facet normal 0.000000e+000 1.000000e+000 0.000000e+000
      outer loop
         vertex 8.113868e+000 5.800000e+000 1.000000e+001
         vertex 1.385331e+001 5.800000e+000 5.495910e+000
         vertex 1.269671e+001 5.800000e+000 4.769172e+000
      endloop
   endfacet
   facet normal 0.000000e+000 1.000000e+000 0.000000e+000
      outer loop
         vertex 8.113868e+000 5.800000e+000 1.000000e+001
         vertex 1.269671e+001 5.800000e+000 4.769172e+000
         vertex 8.113868e+000 5.800000e+000 6.000000e+000
      endloop
   endfacet
   facet normal 0.000000e+000 1.000000e+000 0.000000e+000
      outer loop
         vertex 8.113868e+000 5.800000e+000 6.000000e+000
         vertex 1.269671e+001 5.800000e+000 4.769172e+000
         vertex 1.173083e+001 5.800000e+000 3.803288e+000
      endloop
   endfacet
   facet normal 0.000000e+000 1.000000e+000 0.000000e+000
      outer loop
         vertex 8.113868e+000 5.800000e+000 6.000000e+000
         vertex 1.173083e+001 5.800000e+000 3.803288e+000
         vertex 1.100409e+001 5.800000e+000 2.646691e+000
      endloop
   endfacet
   facet normal 0.000000e+000 -1.000000e+000 0.000000e+000
      outer loop
         vertex 0.000000e+000 0.000000e+000 0.000000e+000
         vertex 1.040000e+001 0.000000e+000 0.000000e+000
         vertex 0.000000e+000 0.000000e+000 6.000000e+000
      endloop
   endfacet
   facet normal 0.000000e+000 -1.000000e+000 0.000000e+000
      outer loop
         vertex 0.000000e+000 0.000000e+000 6.000000e+000
         vertex 1.040000e+001 0.000000e+000 0.000000e+000
         vertex 1.055294e+001 0.000000e+000 1.357378e+000
      endloop
   endfacet
   facet normal 0.000000e+000 -1.000000e+000 0.000000e+000
      outer loop
         vertex 0.000000e+000 0.000000e+000 6.000000e+000
         vertex 1.055294e+001 0.000000e+000 1.357378e+000
         vertex 8.113868e+000 0.000000e+000 6.000000e+000
      endloop
   endfacet
   facet normal 0.000000e+000 -1.000000e+000 0.000000e+000
      outer loop
         vertex 1.055294e+001 0.000000e+000 1.357378e+000
         vertex 1.100409e+001 0.000000e+000 2.646691e+000
         vertex 8.113868e+000 0.000000e+000 6.000000e+000
      endloop
   endfacet
   facet normal 0.000000e+000 -1.000000e+000 0.000000e+000
      outer loop
         vertex 8.113868e+000 0.000000e+000 6.000000e+000
         vertex 1.100409e+001 0.000000e+000 2.646691e+000
         vertex 1.173083e+001 0.000000e+000 3.803288e+000
      endloop
   endfacet
   facet normal 0.000000e+000 -1.000000e+000 0.000000e+000
      outer loop
         vertex 8.113868e+000 0.000000e+000 6.000000e+000
         vertex 1.173083e+001 0.000000e+000 3.803288e+000
         vertex 8.113868e+000 0.000000e+000 1.000000e+001
      endloop
   endfacet
   facet normal 0.000000e+000 -1.000000e+000 0.000000e+000
      outer loop
         vertex 8.113868e+000 0.000000e+000 1.000000e+001
         vertex 1.173083e+001 0.000000e+000 3.803288e+000
         vertex 1.269671e+001 0.000000e+000 4.769172e+000
      endloop
   endfacet
   facet normal 0.000000e+000 -1.000000e+000 0.000000e+000
      outer loop
         vertex 8.113868e+000 0.000000e+000 1.000000e+001
         vertex 1.269671e+001 0.000000e+000 4.769172e+000
         vertex 1.385331e+001 0.000000e+000 5.495910e+000
      endloop
   endfacet
   facet normal 0.000000e+000 -1.000000e+000 0.000000e+000
      outer loop
         vertex 1.914669e+001 0.000000e+000 5.495910e+000
         vertex 2.030329e+001 0.000000e+000 4.769172e+000
         vertex 2.488613e+001 0.000000e+000 1.000000e+001
      endloop
   endfacet
   facet normal 0.000000e+000 -1.000000e+000 0.000000e+000
      outer loop
         vertex 2.488613e+001 0.000000e+000 1.000000e+001
         vertex 2.030329e+001 0.000000e+000 4.769172e+000
         vertex 2.488613e+001 0.000000e+000 6.000000e+000
      endloop
   endfacet
   facet normal 0.000000e+000 -1.000000e+000 0.000000e+000
      outer loop
         vertex 2.260000e+001 0.000000e+000 0.000000e+000
         vertex 3.300000e+001 0.000000e+000 0.000000e+000
         vertex 2.244706e+001 0.000000e+000 1.357378e+000
      endloop
   endfacet
   facet normal 0.000000e+000 -1.000000e+000 0.000000e+000
      outer loop
         vertex 2.244706e+001 0.000000e+000 1.357378e+000
         vertex 3.300000e+001 0.000000e+000 0.000000e+000
         vertex 3.300000e+001 0.000000e+000 6.000000e+000
      endloop
   endfacet
   facet normal 0.000000e+000 -1.000000e+000 0.000000e+000
      outer loop
         vertex 2.244706e+001 0.000000e+000 1.357378e+000
         vertex 3.300000e+001 0.000000e+000 6.000000e+000
         vertex 2.199591e+001 0.000000e+000 2.646691e+000
      endloop
   endfacet
   facet normal 0.000000e+000 -1.000000e+000 0.000000e+000
      outer loop
         vertex 2.199591e+001 0.000000e+000 2.646691e+000
         vertex 3.300000e+001 0.000000e+000 6.000000e+000
         vertex 2.488613e+001 0.000000e+000 6.000000e+000
      endloop
   endfacet
   facet normal 0.000000e+000 -1.000000e+000 0.000000e+000
      outer loop
         vertex 2.199591e+001 0.000000e+000 2.646691e+000
         vertex 2.488613e+001 0.000000e+000 6.000000e+000
         vertex 2.126917e+001 0.000000e+000 3.803288e+000
      endloop
   endfacet
   facet normal 0.000000e+000 -1.000000e+000 0.000000e+000
      outer loop
         vertex 2.126917e+001 0.000000e+000 3.803288e+000
         vertex 2.488613e+001 0.000000e+000 6.000000e+000
         vertex 2.030329e+001 0.000000e+000 4.769172e+000
      endloop
   endfacet
   facet normal 0.000000e+000 -1.000000e+000 0.000000e+000
      outer loop
         vertex 1.385331e+001 0.000000e+000 5.495910e+000
         vertex 1.514262e+001 0.000000e+000 5.947060e+000
         vertex 8.113868e+000 0.000000e+000 1.000000e+001
      endloop
   endfacet
   facet normal 0.000000e+000 -1.000000e+000 0.000000e+000
      outer loop
         vertex 8.113868e+000 0.000000e+000 1.000000e+001
         vertex 1.514262e+001 0.000000e+000 5.947060e+000
         vertex 1.650000e+001 0.000000e+000 6.100000e+000
      endloop
   endfacet
   facet normal 0.000000e+000 -1.000000e+000 0.000000e+000
      outer loop
         vertex 8.113868e+000 0.000000e+000 1.000000e+001
         vertex 1.650000e+001 0.000000e+000 6.100000e+000
         vertex 2.488613e+001 0.000000e+000 1.000000e+001
      endloop
   endfacet
   facet normal 0.000000e+000 -1.000000e+000 0.000000e+000
      outer loop
         vertex 2.488613e+001 0.000000e+000 1.000000e+001
         vertex 1.650000e+001 0.000000e+000 6.100000e+000
         vertex 1.785738e+001 0.000000e+000 5.947060e+000
      endloop
   endfacet
   facet normal 0.000000e+000 -1.000000e+000 0.000000e+000
      outer loop
         vertex 2.488613e+001 0.000000e+000 1.000000e+001
         vertex 1.785738e+001 0.000000e+000 5.947060e+000
         vertex 1.914669e+001 0.000000e+000 5.495910e+000
      endloop
   endfacet
   facet normal 9.902522e-001 1.392858e-001 0.000000e+000
      outer loop
         vertex 2.610000e+001 2.900000e+000 6.000000e+000
         vertex 2.613715e+001 2.546550e+000 6.000000e+000
         vertex 2.613715e+001 2.546550e+000 0.000000e+000
      endloop
   endfacet
   facet normal 9.400072e-001 3.411547e-001 0.000000e+000
      outer loop
         vertex 2.613715e+001 2.546550e+000 0.000000e+000
         vertex 2.613715e+001 2.546550e+000 6.000000e+000
         vertex 2.642467e+001 1.900765e+000 6.000000e+000
      endloop
   endfacet
   facet normal 8.825150e-001 4.702844e-001 0.000000e+000
      outer loop
         vertex 2.613715e+001 2.546550e+000 0.000000e+000
         vertex 2.642467e+001 1.900765e+000 6.000000e+000
         vertex 2.642467e+001 1.900765e+000 0.000000e+000
      endloop
   endfacet
   facet normal 7.199791e-001 6.939957e-001 0.000000e+000
      outer loop
         vertex 2.642467e+001 1.900765e+000 0.000000e+000
         vertex 2.642467e+001 1.900765e+000 6.000000e+000
         vertex 2.695000e+001 1.427757e+000 6.000000e+000
      endloop
   endfacet
   facet normal 6.149356e-001 7.885774e-001 0.000000e+000
      outer loop
         vertex 2.642467e+001 1.900765e+000 0.000000e+000
         vertex 2.695000e+001 1.427757e+000 6.000000e+000
         vertex 2.695000e+001 1.427757e+000 0.000000e+000
      endloop
   endfacet
   facet normal 3.754602e-001 9.268385e-001 0.000000e+000
      outer loop
         vertex 2.695000e+001 1.427757e+000 0.000000e+000
         vertex 2.695000e+001 1.427757e+000 6.000000e+000
         vertex 2.762230e+001 1.209313e+000 6.000000e+000
      endloop
   endfacet
   facet normal 2.410284e-001 9.705181e-001 0.000000e+000
      outer loop
         vertex 2.695000e+001 1.427757e+000 0.000000e+000
         vertex 2.762230e+001 1.209313e+000 6.000000e+000
         vertex 2.762230e+001 1.209313e+000 0.000000e+000
      endloop
   endfacet
   facet normal -3.397923e-002 9.994226e-001 0.000000e+000
      outer loop
         vertex 2.762230e+001 1.209313e+000 0.000000e+000
         vertex 2.762230e+001 1.209313e+000 6.000000e+000
         vertex 2.832533e+001 1.283204e+000 6.000000e+000
      endloop
   endfacet
   facet normal -1.745549e-001 9.846475e-001 0.000000e+000
      outer loop
         vertex 2.762230e+001 1.209313e+000 0.000000e+000
         vertex 2.832533e+001 1.283204e+000 6.000000e+000
         vertex 2.832533e+001 1.283204e+000 0.000000e+000
      endloop
   endfacet
   facet normal -4.375433e-001 8.991973e-001 0.000000e+000
      outer loop
         vertex 2.832533e+001 1.283204e+000 0.000000e+000
         vertex 2.832533e+001 1.283204e+000 6.000000e+000
         vertex 2.893752e+001 1.636654e+000 6.000000e+000
      endloop
   endfacet
   facet normal -5.599561e-001 8.285223e-001 0.000000e+000
      outer loop
         vertex 2.832533e+001 1.283204e+000 0.000000e+000
         vertex 2.893752e+001 1.636654e+000 6.000000e+000
         vertex 2.893752e+001 1.636654e+000 0.000000e+000
      endloop
   endfacet
   facet normal -7.654523e-001 6.434927e-001 0.000000e+000
      outer loop
         vertex 2.893752e+001 1.636654e+000 0.000000e+000
         vertex 2.893752e+001 1.636654e+000 6.000000e+000
         vertex 2.935303e+001 2.208548e+000 6.000000e+000
      endloop
   endfacet
   facet normal -8.485357e-001 5.291381e-001 0.000000e+000
      outer loop
         vertex 2.893752e+001 1.636654e+000 0.000000e+000
         vertex 2.935303e+001 2.208548e+000 6.000000e+000
         vertex 2.935303e+001 2.208548e+000 0.000000e+000
      endloop
   endfacet
   facet normal -9.610075e-001 2.765224e-001 0.000000e+000
      outer loop
         vertex 2.935303e+001 2.208548e+000 0.000000e+000
         vertex 2.935303e+001 2.208548e+000 6.000000e+000
         vertex 2.950000e+001 2.900000e+000 6.000000e+000
      endloop
   endfacet
   facet normal -9.903958e-001 1.382612e-001 0.000000e+000
      outer loop
         vertex 2.935303e+001 2.208548e+000 0.000000e+000
         vertex 2.950000e+001 2.900000e+000 6.000000e+000
         vertex 2.950000e+001 2.900000e+000 0.000000e+000
      endloop
   endfacet
   facet normal -9.903958e-001 -1.382612e-001 0.000000e+000
      outer loop
         vertex 2.950000e+001 2.900000e+000 0.000000e+000
         vertex 2.950000e+001 2.900000e+000 6.000000e+000
         vertex 2.935303e+001 3.591452e+000 6.000000e+000
      endloop
   endfacet
   facet normal -9.610075e-001 -2.765224e-001 0.000000e+000
      outer loop
         vertex 2.950000e+001 2.900000e+000 0.000000e+000
         vertex 2.935303e+001 3.591452e+000 6.000000e+000
         vertex 2.935303e+001 3.591452e+000 0.000000e+000
      endloop
   endfacet
   facet normal -8.485357e-001 -5.291381e-001 0.000000e+000
      outer loop
         vertex 2.935303e+001 3.591452e+000 0.000000e+000
         vertex 2.935303e+001 3.591452e+000 6.000000e+000
         vertex 2.893752e+001 4.163346e+000 6.000000e+000
      endloop
   endfacet
   facet normal -7.654522e-001 -6.434927e-001 0.000000e+000
      outer loop
         vertex 2.935303e+001 3.591452e+000 0.000000e+000
         vertex 2.893752e+001 4.163346e+000 6.000000e+000
         vertex 2.893752e+001 4.163346e+000 0.000000e+000
      endloop
   endfacet
   facet normal -5.599561e-001 -8.285223e-001 0.000000e+000
      outer loop
         vertex 2.893752e+001 4.163346e+000 0.000000e+000
         vertex 2.893752e+001 4.163346e+000 6.000000e+000
         vertex 2.832533e+001 4.516796e+000 6.000000e+000
      endloop
   endfacet
   facet normal -4.375433e-001 -8.991973e-001 0.000000e+000
      outer loop
         vertex 2.893752e+001 4.163346e+000 0.000000e+000
         vertex 2.832533e+001 4.516796e+000 6.000000e+000
         vertex 2.832533e+001 4.516796e+000 0.000000e+000
      endloop
   endfacet
   facet normal -1.745549e-001 -9.846475e-001 0.000000e+000
      outer loop
         vertex 2.832533e+001 4.516796e+000 0.000000e+000
         vertex 2.832533e+001 4.516796e+000 6.000000e+000
         vertex 2.762230e+001 4.590687e+000 6.000000e+000
      endloop
   endfacet
   facet normal -3.397924e-002 -9.994226e-001 0.000000e+000
      outer loop
         vertex 2.832533e+001 4.516796e+000 0.000000e+000
         vertex 2.762230e+001 4.590687e+000 6.000000e+000
         vertex 2.762230e+001 4.590687e+000 0.000000e+000
      endloop
   endfacet
   facet normal 2.410283e-001 -9.705181e-001 0.000000e+000
      outer loop
         vertex 2.762230e+001 4.590687e+000 0.000000e+000
         vertex 2.762230e+001 4.590687e+000 6.000000e+000
         vertex 2.695000e+001 4.372243e+000 6.000000e+000
      endloop
   endfacet
   facet normal 3.754602e-001 -9.268385e-001 0.000000e+000
      outer loop
         vertex 2.762230e+001 4.590687e+000 0.000000e+000
         vertex 2.695000e+001 4.372243e+000 6.000000e+000
         vertex 2.695000e+001 4.372243e+000 0.000000e+000
      endloop
   endfacet
   facet normal 6.149356e-001 -7.885774e-001 0.000000e+000
      outer loop
         vertex 2.695000e+001 4.372243e+000 0.000000e+000
         vertex 2.695000e+001 4.372243e+000 6.000000e+000
         vertex 2.642467e+001 3.899235e+000 6.000000e+000
      endloop
   endfacet
   facet normal 7.199791e-001 -6.939957e-001 0.000000e+000
      outer loop
         vertex 2.695000e+001 4.372243e+000 0.000000e+000
         vertex 2.642467e+001 3.899235e+000 6.000000e+000
         vertex 2.642467e+001 3.899235e+000 0.000000e+000
      endloop
   endfacet
   facet normal 8.825150e-001 -4.702844e-001 0.000000e+000
      outer loop
         vertex 2.642467e+001 3.899235e+000 0.000000e+000
         vertex 2.642467e+001 3.899235e+000 6.000000e+000
         vertex 2.613715e+001 3.253450e+000 6.000000e+000
      endloop
   endfacet
   facet normal 9.400072e-001 -3.411547e-001 0.000000e+000
      outer loop
         vertex 2.642467e+001 3.899235e+000 0.000000e+000
         vertex 2.613715e+001 3.253450e+000 6.000000e+000
         vertex 2.613715e+001 3.253450e+000 0.000000e+000
      endloop
   endfacet
   facet normal 9.902522e-001 -1.392858e-001 0.000000e+000
      outer loop
         vertex 2.613715e+001 3.253450e+000 0.000000e+000
         vertex 2.613715e+001 3.253450e+000 6.000000e+000
         vertex 2.610000e+001 2.900000e+000 6.000000e+000
      endloop
   endfacet
   facet normal 1.000000e+000 0.000000e+000 0.000000e+000
      outer loop
         vertex 2.613715e+001 3.253450e+000 0.000000e+000
         vertex 2.610000e+001 2.900000e+000 6.000000e+000
         vertex 2.613715e+001 2.546550e+000 0.000000e+000
      endloop
   endfacet
   facet normal 0.000000e+000 0.000000e+000 1.000000e+000
      outer loop
         vertex 7.895503e+000 5.749797e+000 6.000000e+000
         vertex 8.113868e+000 5.800000e+000 6.000000e+000
         vertex 0.000000e+000 5.800000e+000 6.000000e+000
      endloop
   endfacet
   facet normal 0.000000e+000 0.000000e+000 1.000000e+000
      outer loop
         vertex 8.113868e+000 0.000000e+000 6.000000e+000
         vertex 7.895503e+000 5.020319e-002 6.000000e+000
         vertex 0.000000e+000 0.000000e+000 6.000000e+000
      endloop
   endfacet
   facet normal 0.000000e+000 0.000000e+000 1.000000e+000
      outer loop
         vertex 0.000000e+000 0.000000e+000 6.000000e+000
         vertex 7.895503e+000 5.020319e-002 6.000000e+000
         vertex 7.720990e+000 1.907313e-001 6.000000e+000
      endloop
   endfacet
   facet normal 0.000000e+000 0.000000e+000 1.000000e+000
      outer loop
         vertex 0.000000e+000 0.000000e+000 6.000000e+000
         vertex 7.720990e+000 1.907313e-001 6.000000e+000
         vertex 7.625371e+000 3.933645e-001 6.000000e+000
      endloop
   endfacet
   facet normal 0.000000e+000 0.000000e+000 1.000000e+000
      outer loop
         vertex 7.895503e+000 5.749797e+000 6.000000e+000
         vertex 0.000000e+000 5.800000e+000 6.000000e+000
         vertex 7.720990e+000 5.609269e+000 6.000000e+000
      endloop
   endfacet
   facet normal 0.000000e+000 0.000000e+000 1.000000e+000
      outer loop
         vertex 6.900000e+000 2.900000e+000 6.000000e+000
         vertex 8.443955e+000 2.450135e+000 6.000000e+000
         vertex 8.443955e+000 3.349865e+000 6.000000e+000
      endloop
   endfacet
   facet normal 0.000000e+000 0.000000e+000 1.000000e+000
      outer loop
         vertex 6.900000e+000 2.900000e+000 6.000000e+000
         vertex 8.443955e+000 3.349865e+000 6.000000e+000
         vertex 6.753027e+000 3.591452e+000 6.000000e+000
      endloop
   endfacet
   facet normal 0.000000e+000 0.000000e+000 1.000000e+000
      outer loop
         vertex 6.753027e+000 3.591452e+000 6.000000e+000
         vertex 8.443955e+000 3.349865e+000 6.000000e+000
         vertex 8.199119e+000 4.215641e+000 6.000000e+000
      endloop
   endfacet
   facet normal 0.000000e+000 0.000000e+000 1.000000e+000
      outer loop
         vertex 6.753027e+000 3.591452e+000 6.000000e+000
         vertex 8.199119e+000 4.215641e+000 6.000000e+000
         vertex 6.337522e+000 4.163346e+000 6.000000e+000
      endloop
   endfacet
   facet normal 0.000000e+000 0.000000e+000 1.000000e+000
      outer loop
         vertex 6.337522e+000 4.163346e+000 6.000000e+000
         vertex 8.199119e+000 4.215641e+000 6.000000e+000
         vertex 7.727925e+000 4.982120e+000 6.000000e+000
      endloop
   endfacet
   facet normal 0.000000e+000 0.000000e+000 1.000000e+000
      outer loop
         vertex 6.337522e+000 4.163346e+000 6.000000e+000
         vertex 7.727925e+000 4.982120e+000 6.000000e+000
         vertex 7.627849e+000 5.182589e+000 6.000000e+000
      endloop
   endfacet
   facet normal 0.000000e+000 0.000000e+000 1.000000e+000
      outer loop
         vertex 3.537149e+000 3.253450e+000 6.000000e+000
         vertex 0.000000e+000 5.800000e+000 6.000000e+000
         vertex 3.537149e+000 2.546550e+000 6.000000e+000
      endloop
   endfacet
   facet normal 0.000000e+000 0.000000e+000 1.000000e+000
      outer loop
         vertex 3.537149e+000 2.546550e+000 6.000000e+000
         vertex 0.000000e+000 5.800000e+000 6.000000e+000
         vertex 0.000000e+000 0.000000e+000 6.000000e+000
      endloop
   endfacet
   facet normal 0.000000e+000 0.000000e+000 1.000000e+000
      outer loop
         vertex 3.537149e+000 2.546550e+000 6.000000e+000
         vertex 0.000000e+000 0.000000e+000 6.000000e+000
         vertex 3.824671e+000 1.900765e+000 6.000000e+000
      endloop
   endfacet
   facet normal 0.000000e+000 0.000000e+000 1.000000e+000
      outer loop
         vertex 3.537149e+000 3.253450e+000 6.000000e+000
         vertex 3.824671e+000 3.899235e+000 6.000000e+000
         vertex 0.000000e+000 5.800000e+000 6.000000e+000
      endloop
   endfacet
   facet normal 0.000000e+000 0.000000e+000 1.000000e+000
      outer loop
         vertex 0.000000e+000 5.800000e+000 6.000000e+000
         vertex 3.824671e+000 3.899235e+000 6.000000e+000
         vertex 4.350000e+000 4.372243e+000 6.000000e+000
      endloop
   endfacet
   facet normal 0.000000e+000 0.000000e+000 1.000000e+000
      outer loop
         vertex 0.000000e+000 5.800000e+000 6.000000e+000
         vertex 4.350000e+000 4.372243e+000 6.000000e+000
         vertex 5.022301e+000 4.590687e+000 6.000000e+000
      endloop
   endfacet
   facet normal 0.000000e+000 0.000000e+000 1.000000e+000
      outer loop
         vertex 8.443955e+000 2.450135e+000 6.000000e+000
         vertex 6.900000e+000 2.900000e+000 6.000000e+000
         vertex 8.199119e+000 1.584359e+000 6.000000e+000
      endloop
   endfacet
   facet normal 0.000000e+000 0.000000e+000 1.000000e+000
      outer loop
         vertex 8.199119e+000 1.584359e+000 6.000000e+000
         vertex 6.900000e+000 2.900000e+000 6.000000e+000
         vertex 6.753027e+000 2.208548e+000 6.000000e+000
      endloop
   endfacet
   facet normal 0.000000e+000 0.000000e+000 1.000000e+000
      outer loop
         vertex 8.199119e+000 1.584359e+000 6.000000e+000
         vertex 6.753027e+000 2.208548e+000 6.000000e+000
         vertex 7.727925e+000 8.178808e-001 6.000000e+000
      endloop
   endfacet
   facet normal 0.000000e+000 0.000000e+000 1.000000e+000
      outer loop
         vertex 7.727925e+000 8.178808e-001 6.000000e+000
         vertex 6.753027e+000 2.208548e+000 6.000000e+000
         vertex 6.337522e+000 1.636654e+000 6.000000e+000
      endloop
   endfacet
   facet normal 0.000000e+000 0.000000e+000 1.000000e+000
      outer loop
         vertex 7.727925e+000 8.178808e-001 6.000000e+000
         vertex 6.337522e+000 1.636654e+000 6.000000e+000
         vertex 7.627849e+000 6.174116e-001 6.000000e+000
      endloop
   endfacet
   facet normal 0.000000e+000 0.000000e+000 1.000000e+000
      outer loop
         vertex 7.627849e+000 6.174116e-001 6.000000e+000
         vertex 6.337522e+000 1.636654e+000 6.000000e+000
         vertex 5.725329e+000 1.283204e+000 6.000000e+000
      endloop
   endfacet
   facet normal 0.000000e+000 0.000000e+000 1.000000e+000
      outer loop
         vertex 7.627849e+000 6.174116e-001 6.000000e+000
         vertex 5.725329e+000 1.283204e+000 6.000000e+000
         vertex 7.625371e+000 3.933645e-001 6.000000e+000
      endloop
   endfacet
   facet normal 0.000000e+000 0.000000e+000 1.000000e+000
      outer loop
         vertex 7.625371e+000 3.933645e-001 6.000000e+000
         vertex 5.725329e+000 1.283204e+000 6.000000e+000
         vertex 5.022301e+000 1.209313e+000 6.000000e+000
      endloop
   endfacet
   facet normal 0.000000e+000 0.000000e+000 1.000000e+000
      outer loop
         vertex 7.625371e+000 3.933645e-001 6.000000e+000
         vertex 5.022301e+000 1.209313e+000 6.000000e+000
         vertex 0.000000e+000 0.000000e+000 6.000000e+000
      endloop
   endfacet
   facet normal 0.000000e+000 0.000000e+000 1.000000e+000
      outer loop
         vertex 0.000000e+000 0.000000e+000 6.000000e+000
         vertex 5.022301e+000 1.209313e+000 6.000000e+000
         vertex 4.350000e+000 1.427757e+000 6.000000e+000
      endloop
   endfacet
   facet normal 0.000000e+000 0.000000e+000 1.000000e+000
      outer loop
         vertex 0.000000e+000 0.000000e+000 6.000000e+000
         vertex 4.350000e+000 1.427757e+000 6.000000e+000
         vertex 3.824671e+000 1.900765e+000 6.000000e+000
      endloop
   endfacet
   facet normal 0.000000e+000 0.000000e+000 1.000000e+000
      outer loop
         vertex 7.720990e+000 5.609269e+000 6.000000e+000
         vertex 0.000000e+000 5.800000e+000 6.000000e+000
         vertex 7.625371e+000 5.406635e+000 6.000000e+000
      endloop
   endfacet
   facet normal 0.000000e+000 0.000000e+000 1.000000e+000
      outer loop
         vertex 7.625371e+000 5.406635e+000 6.000000e+000
         vertex 0.000000e+000 5.800000e+000 6.000000e+000
         vertex 5.022301e+000 4.590687e+000 6.000000e+000
      endloop
   endfacet
   facet normal 0.000000e+000 0.000000e+000 1.000000e+000
      outer loop
         vertex 7.625371e+000 5.406635e+000 6.000000e+000
         vertex 5.022301e+000 4.590687e+000 6.000000e+000
         vertex 7.627849e+000 5.182589e+000 6.000000e+000
      endloop
   endfacet
   facet normal 0.000000e+000 0.000000e+000 1.000000e+000
      outer loop
         vertex 7.627849e+000 5.182589e+000 6.000000e+000
         vertex 5.022301e+000 4.590687e+000 6.000000e+000
         vertex 5.725329e+000 4.516796e+000 6.000000e+000
      endloop
   endfacet
   facet normal 0.000000e+000 0.000000e+000 1.000000e+000
      outer loop
         vertex 7.627849e+000 5.182589e+000 6.000000e+000
         vertex 5.725329e+000 4.516796e+000 6.000000e+000
         vertex 6.337522e+000 4.163346e+000 6.000000e+000
      endloop
   endfacet
   facet normal -8.268071e-001 5.624855e-001 0.000000e+000
      outer loop
         vertex 7.727925e+000 8.178808e-001 6.000000e+000
         vertex 7.727925e+000 8.178808e-001 1.000000e+001
         vertex 8.199119e+000 1.584359e+000 1.000000e+001
      endloop
   endfacet
   facet normal -8.751731e-001 4.838099e-001 0.000000e+000
      outer loop
         vertex 7.727925e+000 8.178808e-001 6.000000e+000
         vertex 8.199119e+000 1.584359e+000 1.000000e+001
         vertex 8.199119e+000 1.584359e+000 6.000000e+000
      endloop
   endfacet
   facet normal -9.486705e-001 3.162661e-001 0.000000e+000
      outer loop
         vertex 8.199119e+000 1.584359e+000 6.000000e+000
         vertex 8.199119e+000 1.584359e+000 1.000000e+001
         vertex 8.443955e+000 2.450135e+000 1.000000e+001
      endloop
   endfacet
   facet normal -9.738019e-001 2.273980e-001 0.000000e+000
      outer loop
         vertex 8.199119e+000 1.584359e+000 6.000000e+000
         vertex 8.443955e+000 2.450135e+000 1.000000e+001
         vertex 8.443955e+000 2.450135e+000 6.000000e+000
      endloop
   endfacet
   facet normal -9.989333e-001 4.617663e-002 0.000000e+000
      outer loop
         vertex 8.443955e+000 2.450135e+000 6.000000e+000
         vertex 8.443955e+000 2.450135e+000 1.000000e+001
         vertex 8.443955e+000 3.349865e+000 1.000000e+001
      endloop
   endfacet
   facet normal -9.989333e-001 -4.617663e-002 0.000000e+000
      outer loop
         vertex 8.443955e+000 2.450135e+000 6.000000e+000
         vertex 8.443955e+000 3.349865e+000 1.000000e+001
         vertex 8.443955e+000 3.349865e+000 6.000000e+000
      endloop
   endfacet
   facet normal -9.738019e-001 -2.273980e-001 0.000000e+000
      outer loop
         vertex 8.443955e+000 3.349865e+000 6.000000e+000
         vertex 8.443955e+000 3.349865e+000 1.000000e+001
         vertex 8.199119e+000 4.215641e+000 1.000000e+001
      endloop
   endfacet
   facet normal -9.486705e-001 -3.162661e-001 0.000000e+000
      outer loop
         vertex 8.443955e+000 3.349865e+000 6.000000e+000
         vertex 8.199119e+000 4.215641e+000 1.000000e+001
         vertex 8.199119e+000 4.215641e+000 6.000000e+000
      endloop
   endfacet
   facet normal -8.751731e-001 -4.838099e-001 0.000000e+000
      outer loop
         vertex 8.199119e+000 4.215641e+000 6.000000e+000
         vertex 8.199119e+000 4.215641e+000 1.000000e+001
         vertex 7.727925e+000 4.982120e+000 1.000000e+001
      endloop
   endfacet
   facet normal -8.268072e-001 -5.624855e-001 0.000000e+000
      outer loop
         vertex 8.199119e+000 4.215641e+000 6.000000e+000
         vertex 7.727925e+000 4.982120e+000 1.000000e+001
         vertex 7.727925e+000 4.982120e+000 6.000000e+000
      endloop
   endfacet
   facet normal 0.000000e+000 0.000000e+000 1.000000e+000
      outer loop
         vertex 3.300000e+001 5.800000e+000 6.000000e+000
         vertex 2.488613e+001 5.800000e+000 6.000000e+000
         vertex 2.510450e+001 5.749797e+000 6.000000e+000
      endloop
   endfacet
   facet normal 0.000000e+000 0.000000e+000 1.000000e+000
      outer loop
         vertex 2.537463e+001 3.933645e-001 6.000000e+000
         vertex 2.527901e+001 1.907313e-001 6.000000e+000
         vertex 3.300000e+001 3.903128e-015 6.000000e+000
      endloop
   endfacet
   facet normal 0.000000e+000 0.000000e+000 1.000000e+000
      outer loop
         vertex 3.300000e+001 3.903128e-015 6.000000e+000
         vertex 2.527901e+001 1.907313e-001 6.000000e+000
         vertex 2.510450e+001 5.020319e-002 6.000000e+000
      endloop
   endfacet
   facet normal 0.000000e+000 0.000000e+000 1.000000e+000
      outer loop
         vertex 3.300000e+001 3.903128e-015 6.000000e+000
         vertex 2.510450e+001 5.020319e-002 6.000000e+000
         vertex 2.488613e+001 2.168404e-015 6.000000e+000
      endloop
   endfacet
   facet normal 0.000000e+000 0.000000e+000 1.000000e+000
      outer loop
         vertex 3.300000e+001 5.800000e+000 6.000000e+000
         vertex 2.935303e+001 3.591452e+000 6.000000e+000
         vertex 3.300000e+001 3.903128e-015 6.000000e+000
      endloop
   endfacet
   facet normal 0.000000e+000 0.000000e+000 1.000000e+000
      outer loop
         vertex 3.300000e+001 3.903128e-015 6.000000e+000
         vertex 2.935303e+001 3.591452e+000 6.000000e+000
         vertex 2.950000e+001 2.900000e+000 6.000000e+000
      endloop
   endfacet
   facet normal 0.000000e+000 0.000000e+000 1.000000e+000
      outer loop
         vertex 3.300000e+001 3.903128e-015 6.000000e+000
         vertex 2.950000e+001 2.900000e+000 6.000000e+000
         vertex 2.935303e+001 2.208548e+000 6.000000e+000
      endloop
   endfacet
   facet normal 0.000000e+000 0.000000e+000 1.000000e+000
      outer loop
         vertex 2.642467e+001 3.899235e+000 6.000000e+000
         vertex 2.695000e+001 4.372243e+000 6.000000e+000
         vertex 2.537215e+001 5.182589e+000 6.000000e+000
      endloop
   endfacet
   facet normal 0.000000e+000 0.000000e+000 1.000000e+000
      outer loop
         vertex 2.537215e+001 6.174116e-001 6.000000e+000
         vertex 2.537463e+001 3.933645e-001 6.000000e+000
         vertex 2.832533e+001 1.283204e+000 6.000000e+000
      endloop
   endfacet
   facet normal 0.000000e+000 0.000000e+000 1.000000e+000
      outer loop
         vertex 2.832533e+001 1.283204e+000 6.000000e+000
         vertex 2.537463e+001 3.933645e-001 6.000000e+000
         vertex 3.300000e+001 3.903128e-015 6.000000e+000
      endloop
   endfacet
   facet normal 0.000000e+000 0.000000e+000 1.000000e+000
      outer loop
         vertex 2.832533e+001 1.283204e+000 6.000000e+000
         vertex 3.300000e+001 3.903128e-015 6.000000e+000
         vertex 2.893752e+001 1.636654e+000 6.000000e+000
      endloop
   endfacet
   facet normal 0.000000e+000 0.000000e+000 1.000000e+000
      outer loop
         vertex 2.893752e+001 1.636654e+000 6.000000e+000
         vertex 3.300000e+001 3.903128e-015 6.000000e+000
         vertex 2.935303e+001 2.208548e+000 6.000000e+000
      endloop
   endfacet
   facet normal 0.000000e+000 0.000000e+000 1.000000e+000
      outer loop
         vertex 2.510450e+001 5.749797e+000 6.000000e+000
         vertex 2.527901e+001 5.609269e+000 6.000000e+000
         vertex 3.300000e+001 5.800000e+000 6.000000e+000
      endloop
   endfacet
   facet normal 0.000000e+000 0.000000e+000 1.000000e+000
      outer loop
         vertex 3.300000e+001 5.800000e+000 6.000000e+000
         vertex 2.527901e+001 5.609269e+000 6.000000e+000
         vertex 2.537463e+001 5.406635e+000 6.000000e+000
      endloop
   endfacet
   facet normal 0.000000e+000 0.000000e+000 1.000000e+000
      outer loop
         vertex 3.300000e+001 5.800000e+000 6.000000e+000
         vertex 2.537463e+001 5.406635e+000 6.000000e+000
         vertex 2.537215e+001 5.182589e+000 6.000000e+000
      endloop
   endfacet
   facet normal 0.000000e+000 0.000000e+000 1.000000e+000
      outer loop
         vertex 2.695000e+001 4.372243e+000 6.000000e+000
         vertex 2.762230e+001 4.590687e+000 6.000000e+000
         vertex 2.537215e+001 5.182589e+000 6.000000e+000
      endloop
   endfacet
   facet normal 0.000000e+000 0.000000e+000 1.000000e+000
      outer loop
         vertex 2.537215e+001 5.182589e+000 6.000000e+000
         vertex 2.762230e+001 4.590687e+000 6.000000e+000
         vertex 2.832533e+001 4.516796e+000 6.000000e+000
      endloop
   endfacet
   facet normal 0.000000e+000 0.000000e+000 1.000000e+000
      outer loop
         vertex 2.537215e+001 5.182589e+000 6.000000e+000
         vertex 2.832533e+001 4.516796e+000 6.000000e+000
         vertex 3.300000e+001 5.800000e+000 6.000000e+000
      endloop
   endfacet
   facet normal 0.000000e+000 0.000000e+000 1.000000e+000
      outer loop
         vertex 3.300000e+001 5.800000e+000 6.000000e+000
         vertex 2.832533e+001 4.516796e+000 6.000000e+000
         vertex 2.893752e+001 4.163346e+000 6.000000e+000
      endloop
   endfacet
   facet normal 0.000000e+000 0.000000e+000 1.000000e+000
      outer loop
         vertex 3.300000e+001 5.800000e+000 6.000000e+000
         vertex 2.893752e+001 4.163346e+000 6.000000e+000
         vertex 2.935303e+001 3.591452e+000 6.000000e+000
      endloop
   endfacet
   facet normal 0.000000e+000 0.000000e+000 1.000000e+000
      outer loop
         vertex 2.537215e+001 5.182589e+000 6.000000e+000
         vertex 2.527208e+001 4.982120e+000 6.000000e+000
         vertex 2.642467e+001 3.899235e+000 6.000000e+000
      endloop
   endfacet
   facet normal 0.000000e+000 0.000000e+000 1.000000e+000
      outer loop
         vertex 2.642467e+001 3.899235e+000 6.000000e+000
         vertex 2.527208e+001 4.982120e+000 6.000000e+000
         vertex 2.480088e+001 4.215641e+000 6.000000e+000
      endloop
   endfacet
   facet normal 0.000000e+000 0.000000e+000 1.000000e+000
      outer loop
         vertex 2.642467e+001 3.899235e+000 6.000000e+000
         vertex 2.480088e+001 4.215641e+000 6.000000e+000
         vertex 2.613715e+001 3.253450e+000 6.000000e+000
      endloop
   endfacet
   facet normal 0.000000e+000 0.000000e+000 1.000000e+000
      outer loop
         vertex 2.613715e+001 3.253450e+000 6.000000e+000
         vertex 2.480088e+001 4.215641e+000 6.000000e+000
         vertex 2.455604e+001 3.349865e+000 6.000000e+000
      endloop
   endfacet
   facet normal 0.000000e+000 0.000000e+000 1.000000e+000
      outer loop
         vertex 2.613715e+001 3.253450e+000 6.000000e+000
         vertex 2.455604e+001 3.349865e+000 6.000000e+000
         vertex 2.610000e+001 2.900000e+000 6.000000e+000
      endloop
   endfacet
   facet normal 0.000000e+000 0.000000e+000 1.000000e+000
      outer loop
         vertex 2.610000e+001 2.900000e+000 6.000000e+000
         vertex 2.455604e+001 3.349865e+000 6.000000e+000
         vertex 2.455604e+001 2.450135e+000 6.000000e+000
      endloop
   endfacet
   facet normal 0.000000e+000 0.000000e+000 1.000000e+000
      outer loop
         vertex 2.610000e+001 2.900000e+000 6.000000e+000
         vertex 2.455604e+001 2.450135e+000 6.000000e+000
         vertex 2.613715e+001 2.546550e+000 6.000000e+000
      endloop
   endfacet
   facet normal 0.000000e+000 0.000000e+000 1.000000e+000
      outer loop
         vertex 2.613715e+001 2.546550e+000 6.000000e+000
         vertex 2.455604e+001 2.450135e+000 6.000000e+000
         vertex 2.480088e+001 1.584359e+000 6.000000e+000
      endloop
   endfacet
   facet normal 0.000000e+000 0.000000e+000 1.000000e+000
      outer loop
         vertex 2.613715e+001 2.546550e+000 6.000000e+000
         vertex 2.480088e+001 1.584359e+000 6.000000e+000
         vertex 2.642467e+001 1.900765e+000 6.000000e+000
      endloop
   endfacet
   facet normal 0.000000e+000 0.000000e+000 1.000000e+000
      outer loop
         vertex 2.642467e+001 1.900765e+000 6.000000e+000
         vertex 2.480088e+001 1.584359e+000 6.000000e+000
         vertex 2.527208e+001 8.178808e-001 6.000000e+000
      endloop
   endfacet
   facet normal 0.000000e+000 0.000000e+000 1.000000e+000
      outer loop
         vertex 2.642467e+001 1.900765e+000 6.000000e+000
         vertex 2.527208e+001 8.178808e-001 6.000000e+000
         vertex 2.695000e+001 1.427757e+000 6.000000e+000
      endloop
   endfacet
   facet normal 0.000000e+000 0.000000e+000 1.000000e+000
      outer loop
         vertex 2.695000e+001 1.427757e+000 6.000000e+000
         vertex 2.527208e+001 8.178808e-001 6.000000e+000
         vertex 2.537215e+001 6.174116e-001 6.000000e+000
      endloop
   endfacet
   facet normal 0.000000e+000 0.000000e+000 1.000000e+000
      outer loop
         vertex 2.695000e+001 1.427757e+000 6.000000e+000
         vertex 2.537215e+001 6.174116e-001 6.000000e+000
         vertex 2.762230e+001 1.209313e+000 6.000000e+000
      endloop
   endfacet
   facet normal 0.000000e+000 0.000000e+000 1.000000e+000
      outer loop
         vertex 2.762230e+001 1.209313e+000 6.000000e+000
         vertex 2.537215e+001 6.174116e-001 6.000000e+000
         vertex 2.832533e+001 1.283204e+000 6.000000e+000
      endloop
   endfacet
   facet normal 8.268071e-001 -5.624855e-001 0.000000e+000
      outer loop
         vertex 2.527208e+001 4.982120e+000 6.000000e+000
         vertex 2.527208e+001 4.982120e+000 1.000000e+001
         vertex 2.480088e+001 4.215641e+000 1.000000e+001
      endloop
   endfacet
   facet normal 8.751731e-001 -4.838099e-001 0.000000e+000
      outer loop
         vertex 2.527208e+001 4.982120e+000 6.000000e+000
         vertex 2.480088e+001 4.215641e+000 1.000000e+001
         vertex 2.480088e+001 4.215641e+000 6.000000e+000
      endloop
   endfacet
   facet normal 9.486705e-001 -3.162661e-001 0.000000e+000
      outer loop
         vertex 2.480088e+001 4.215641e+000 6.000000e+000
         vertex 2.480088e+001 4.215641e+000 1.000000e+001
         vertex 2.455604e+001 3.349865e+000 1.000000e+001
      endloop
   endfacet
   facet normal 9.738019e-001 -2.273980e-001 0.000000e+000
      outer loop
         vertex 2.480088e+001 4.215641e+000 6.000000e+000
         vertex 2.455604e+001 3.349865e+000 1.000000e+001
         vertex 2.455604e+001 3.349865e+000 6.000000e+000
      endloop
   endfacet
   facet normal 9.989333e-001 -4.617663e-002 0.000000e+000
      outer loop
         vertex 2.455604e+001 3.349865e+000 6.000000e+000
         vertex 2.455604e+001 3.349865e+000 1.000000e+001
         vertex 2.455604e+001 2.450135e+000 1.000000e+001
      endloop
   endfacet
   facet normal 9.989333e-001 4.617663e-002 0.000000e+000
      outer loop
         vertex 2.455604e+001 3.349865e+000 6.000000e+000
         vertex 2.455604e+001 2.450135e+000 1.000000e+001
         vertex 2.455604e+001 2.450135e+000 6.000000e+000
      endloop
   endfacet
   facet normal 9.738019e-001 2.273980e-001 0.000000e+000
      outer loop
         vertex 2.455604e+001 2.450135e+000 6.000000e+000
         vertex 2.455604e+001 2.450135e+000 1.000000e+001
         vertex 2.480088e+001 1.584359e+000 1.000000e+001
      endloop
   endfacet
   facet normal 9.486705e-001 3.162661e-001 0.000000e+000
      outer loop
         vertex 2.455604e+001 2.450135e+000 6.000000e+000
         vertex 2.480088e+001 1.584359e+000 1.000000e+001
         vertex 2.480088e+001 1.584359e+000 6.000000e+000
      endloop
   endfacet
   facet normal 8.751731e-001 4.838099e-001 0.000000e+000
      outer loop
         vertex 2.480088e+001 1.584359e+000 6.000000e+000
         vertex 2.480088e+001 1.584359e+000 1.000000e+001
         vertex 2.527208e+001 8.178808e-001 1.000000e+001
      endloop
   endfacet
   facet normal 8.268072e-001 5.624855e-001 0.000000e+000
      outer loop
         vertex 2.480088e+001 1.584359e+000 6.000000e+000
         vertex 2.527208e+001 8.178808e-001 1.000000e+001
         vertex 2.527208e+001 8.178808e-001 6.000000e+000
      endloop
   endfacet
   facet normal 8.579649e-001 5.137084e-001 0.000000e+000
      outer loop
         vertex 2.527208e+001 8.178808e-001 6.000000e+000
         vertex 2.527208e+001 8.178808e-001 1.000000e+001
         vertex 2.537215e+001 6.174116e-001 1.000000e+001
      endloop
   endfacet
   facet normal 9.262228e-001 3.769765e-001 0.000000e+000
      outer loop
         vertex 2.527208e+001 8.178808e-001 6.000000e+000
         vertex 2.537215e+001 6.174116e-001 1.000000e+001
         vertex 2.537215e+001 6.174116e-001 6.000000e+000
      endloop
   endfacet
   facet normal 9.961705e-001 8.743150e-002 0.000000e+000
      outer loop
         vertex 2.537215e+001 6.174116e-001 6.000000e+000
         vertex 2.537215e+001 6.174116e-001 1.000000e+001
         vertex 2.537463e+001 3.933645e-001 1.000000e+001
      endloop
   endfacet
   facet normal 9.978604e-001 -6.538171e-002 0.000000e+000
      outer loop
         vertex 2.537215e+001 6.174116e-001 6.000000e+000
         vertex 2.537463e+001 3.933645e-001 1.000000e+001
         vertex 2.537463e+001 3.933645e-001 6.000000e+000
      endloop
   endfacet
   facet normal 9.343324e-001 -3.564027e-001 0.000000e+000
      outer loop
         vertex 2.537463e+001 3.933645e-001 6.000000e+000
         vertex 2.537463e+001 3.933645e-001 1.000000e+001
         vertex 2.527901e+001 1.907313e-001 1.000000e+001
      endloop
   endfacet
   facet normal 8.691148e-001 -4.946105e-001 0.000000e+000
      outer loop
         vertex 2.537463e+001 3.933645e-001 6.000000e+000
         vertex 2.527901e+001 1.907313e-001 1.000000e+001
         vertex 2.527901e+001 1.907313e-001 6.000000e+000
      endloop
   endfacet
   facet normal 6.848685e-001 -7.286667e-001 0.000000e+000
      outer loop
         vertex 2.527901e+001 1.907313e-001 6.000000e+000
         vertex 2.527901e+001 1.907313e-001 1.000000e+001
         vertex 2.510450e+001 5.020319e-002 1.000000e+001
      endloop
   endfacet
   facet normal 5.658399e-001 -8.245152e-001 0.000000e+000
      outer loop
         vertex 2.527901e+001 1.907313e-001 6.000000e+000
         vertex 2.510450e+001 5.020319e-002 1.000000e+001
         vertex 2.510450e+001 5.020319e-002 6.000000e+000
      endloop
   endfacet
   facet normal 2.978742e-001 -9.546052e-001 0.000000e+000
      outer loop
         vertex 2.510450e+001 5.020319e-002 6.000000e+000
         vertex 2.510450e+001 5.020319e-002 1.000000e+001
         vertex 2.488613e+001 0.000000e+000 1.000000e+001
      endloop
   endfacet
   facet normal 1.489371e-001 -9.888467e-001 0.000000e+000
      outer loop
         vertex 2.510450e+001 5.020319e-002 6.000000e+000
         vertex 2.488613e+001 0.000000e+000 1.000000e+001
         vertex 2.488613e+001 0.000000e+000 6.000000e+000
      endloop
   endfacet
   facet normal 1.489371e-001 9.888467e-001 0.000000e+000
      outer loop
         vertex 2.488613e+001 5.800000e+000 6.000000e+000
         vertex 2.488613e+001 5.800000e+000 1.000000e+001
         vertex 2.510450e+001 5.749797e+000 1.000000e+001
      endloop
   endfacet
   facet normal 2.978742e-001 9.546052e-001 0.000000e+000
      outer loop
         vertex 2.488613e+001 5.800000e+000 6.000000e+000
         vertex 2.510450e+001 5.749797e+000 1.000000e+001
         vertex 2.510450e+001 5.749797e+000 6.000000e+000
      endloop
   endfacet
   facet normal 5.658399e-001 8.245152e-001 0.000000e+000
      outer loop
         vertex 2.510450e+001 5.749797e+000 6.000000e+000
         vertex 2.510450e+001 5.749797e+000 1.000000e+001
         vertex 2.527901e+001 5.609269e+000 1.000000e+001
      endloop
   endfacet
   facet normal 6.848685e-001 7.286667e-001 0.000000e+000
      outer loop
         vertex 2.510450e+001 5.749797e+000 6.000000e+000
         vertex 2.527901e+001 5.609269e+000 1.000000e+001
         vertex 2.527901e+001 5.609269e+000 6.000000e+000
      endloop
   endfacet
   facet normal 8.691148e-001 4.946105e-001 0.000000e+000
      outer loop
         vertex 2.527901e+001 5.609269e+000 6.000000e+000
         vertex 2.527901e+001 5.609269e+000 1.000000e+001
         vertex 2.537463e+001 5.406635e+000 1.000000e+001
      endloop
   endfacet
   facet normal 9.343324e-001 3.564027e-001 0.000000e+000
      outer loop
         vertex 2.527901e+001 5.609269e+000 6.000000e+000
         vertex 2.537463e+001 5.406635e+000 1.000000e+001
         vertex 2.537463e+001 5.406635e+000 6.000000e+000
      endloop
   endfacet
   facet normal 9.978604e-001 6.538171e-002 0.000000e+000
      outer loop
         vertex 2.537463e+001 5.406635e+000 6.000000e+000
         vertex 2.537463e+001 5.406635e+000 1.000000e+001
         vertex 2.537215e+001 5.182589e+000 1.000000e+001
      endloop
   endfacet
   facet normal 9.961705e-001 -8.743150e-002 0.000000e+000
      outer loop
         vertex 2.537463e+001 5.406635e+000 6.000000e+000
         vertex 2.537215e+001 5.182589e+000 1.000000e+001
         vertex 2.537215e+001 5.182589e+000 6.000000e+000
      endloop
   endfacet
   facet normal 9.262228e-001 -3.769765e-001 0.000000e+000
      outer loop
         vertex 2.537215e+001 5.182589e+000 6.000000e+000
         vertex 2.537215e+001 5.182589e+000 1.000000e+001
         vertex 2.527208e+001 4.982120e+000 1.000000e+001
      endloop
   endfacet
   facet normal 8.579649e-001 -5.137084e-001 0.000000e+000
      outer loop
         vertex 2.537215e+001 5.182589e+000 6.000000e+000
         vertex 2.527208e+001 4.982120e+000 1.000000e+001
         vertex 2.527208e+001 4.982120e+000 6.000000e+000
      endloop
   endfacet
   facet normal -1.489371e-001 -9.888467e-001 0.000000e+000
      outer loop
         vertex 8.113868e+000 0.000000e+000 6.000000e+000
         vertex 8.113868e+000 0.000000e+000 1.000000e+001
         vertex 7.895503e+000 5.020319e-002 1.000000e+001
      endloop
   endfacet
   facet normal -2.978742e-001 -9.546052e-001 0.000000e+000
      outer loop
         vertex 8.113868e+000 0.000000e+000 6.000000e+000
         vertex 7.895503e+000 5.020319e-002 1.000000e+001
         vertex 7.895503e+000 5.020319e-002 6.000000e+000
      endloop
   endfacet
   facet normal -5.658399e-001 -8.245152e-001 0.000000e+000
      outer loop
         vertex 7.895503e+000 5.020319e-002 6.000000e+000
         vertex 7.895503e+000 5.020319e-002 1.000000e+001
         vertex 7.720990e+000 1.907313e-001 1.000000e+001
      endloop
   endfacet
   facet normal -6.848685e-001 -7.286667e-001 0.000000e+000
      outer loop
         vertex 7.895503e+000 5.020319e-002 6.000000e+000
         vertex 7.720990e+000 1.907313e-001 1.000000e+001
         vertex 7.720990e+000 1.907313e-001 6.000000e+000
      endloop
   endfacet
   facet normal -8.691148e-001 -4.946105e-001 0.000000e+000
      outer loop
         vertex 7.720990e+000 1.907313e-001 6.000000e+000
         vertex 7.720990e+000 1.907313e-001 1.000000e+001
         vertex 7.625371e+000 3.933645e-001 1.000000e+001
      endloop
   endfacet
   facet normal -9.343324e-001 -3.564027e-001 0.000000e+000
      outer loop
         vertex 7.720990e+000 1.907313e-001 6.000000e+000
         vertex 7.625371e+000 3.933645e-001 1.000000e+001
         vertex 7.625371e+000 3.933645e-001 6.000000e+000
      endloop
   endfacet
   facet normal -9.978604e-001 -6.538171e-002 0.000000e+000
      outer loop
         vertex 7.625371e+000 3.933645e-001 6.000000e+000
         vertex 7.625371e+000 3.933645e-001 1.000000e+001
         vertex 7.627849e+000 6.174116e-001 1.000000e+001
      endloop
   endfacet
   facet normal -9.961705e-001 8.743150e-002 0.000000e+000
      outer loop
         vertex 7.625371e+000 3.933645e-001 6.000000e+000
         vertex 7.627849e+000 6.174116e-001 1.000000e+001
         vertex 7.627849e+000 6.174116e-001 6.000000e+000
      endloop
   endfacet
   facet normal -9.262228e-001 3.769765e-001 0.000000e+000
      outer loop
         vertex 7.627849e+000 6.174116e-001 6.000000e+000
         vertex 7.627849e+000 6.174116e-001 1.000000e+001
         vertex 7.727925e+000 8.178808e-001 1.000000e+001
      endloop
   endfacet
   facet normal -8.579649e-001 5.137084e-001 0.000000e+000
      outer loop
         vertex 7.627849e+000 6.174116e-001 6.000000e+000
         vertex 7.727925e+000 8.178808e-001 1.000000e+001
         vertex 7.727925e+000 8.178808e-001 6.000000e+000
      endloop
   endfacet
   facet normal -8.579649e-001 -5.137084e-001 0.000000e+000
      outer loop
         vertex 7.727925e+000 4.982120e+000 6.000000e+000
         vertex 7.727925e+000 4.982120e+000 1.000000e+001
         vertex 7.627849e+000 5.182589e+000 1.000000e+001
      endloop
   endfacet
   facet normal -9.262228e-001 -3.769765e-001 0.000000e+000
      outer loop
         vertex 7.727925e+000 4.982120e+000 6.000000e+000
         vertex 7.627849e+000 5.182589e+000 1.000000e+001
         vertex 7.627849e+000 5.182589e+000 6.000000e+000
      endloop
   endfacet
   facet normal -9.961705e-001 -8.743150e-002 0.000000e+000
      outer loop
         vertex 7.627849e+000 5.182589e+000 6.000000e+000
         vertex 7.627849e+000 5.182589e+000 1.000000e+001
         vertex 7.625371e+000 5.406635e+000 1.000000e+001
      endloop
   endfacet
   facet normal -9.978604e-001 6.538171e-002 0.000000e+000
      outer loop
         vertex 7.627849e+000 5.182589e+000 6.000000e+000
         vertex 7.625371e+000 5.406635e+000 1.000000e+001
         vertex 7.625371e+000 5.406635e+000 6.000000e+000
      endloop
   endfacet
   facet normal -9.343324e-001 3.564027e-001 0.000000e+000
      outer loop
         vertex 7.625371e+000 5.406635e+000 6.000000e+000
         vertex 7.625371e+000 5.406635e+000 1.000000e+001
         vertex 7.720990e+000 5.609269e+000 1.000000e+001
      endloop
   endfacet
   facet normal -8.691148e-001 4.946105e-001 0.000000e+000
      outer loop
         vertex 7.625371e+000 5.406635e+000 6.000000e+000
         vertex 7.720990e+000 5.609269e+000 1.000000e+001
         vertex 7.720990e+000 5.609269e+000 6.000000e+000
      endloop
   endfacet
   facet normal -6.848685e-001 7.286667e-001 0.000000e+000
      outer loop
         vertex 7.720990e+000 5.609269e+000 6.000000e+000
         vertex 7.720990e+000 5.609269e+000 1.000000e+001
         vertex 7.895503e+000 5.749797e+000 1.000000e+001
      endloop
   endfacet
   facet normal -5.658399e-001 8.245152e-001 0.000000e+000
      outer loop
         vertex 7.720990e+000 5.609269e+000 6.000000e+000
         vertex 7.895503e+000 5.749797e+000 1.000000e+001
         vertex 7.895503e+000 5.749797e+000 6.000000e+000
      endloop
   endfacet
   facet normal -2.978742e-001 9.546052e-001 0.000000e+000
      outer loop
         vertex 7.895503e+000 5.749797e+000 6.000000e+000
         vertex 7.895503e+000 5.749797e+000 1.000000e+001
         vertex 8.113868e+000 5.800000e+000 1.000000e+001
      endloop
   endfacet
   facet normal -1.489371e-001 9.888467e-001 0.000000e+000
      outer loop
         vertex 7.895503e+000 5.749797e+000 6.000000e+000
         vertex 8.113868e+000 5.800000e+000 1.000000e+001
         vertex 8.113868e+000 5.800000e+000 6.000000e+000
      endloop
   endfacet
endsolid